<svg width="236" height="330" viewBox="0 0 236 330" fill="none" xmlns="http://www.w3.org/2000/svg">
<path d="M117.41 92.2295C104.756 81.6443 98.6949 70.1951 96.1453 64.0805C95.2965 62.0457 92.6285 61.5435 91.1094 63.1411C48.3959 108.017 53.9308 155.693 53.9308 155.693C53.9308 190.743 82.351 219.156 117.41 219.156C152.47 219.156 180.89 190.743 180.89 155.693C180.89 120.642 152.47 92.2295 117.41 92.2295Z" fill="#6251F5" stroke="#6251F5" stroke-miterlimit="10"/>
<path d="M118 206.524C136.609 206.524 151.695 191.443 151.695 172.838C151.695 154.234 136.609 139.152 118 139.152C99.3912 139.152 84.3057 154.234 84.3057 172.838C84.3057 191.443 99.3912 206.524 118 206.524Z" fill="#6040AD"/>
<path d="M139.317 103.835C140.057 101.539 138.406 98.9528 135.629 98.0582C132.852 97.1636 130.001 98.2997 129.261 100.596C128.521 102.892 130.172 105.478 132.949 106.373C135.726 107.267 138.577 106.131 139.317 103.835Z" fill="white"/>
<path d="M95.2075 69.4889C97.1261 77.2491 100.495 85.5235 106.188 91.2164C109.353 94.3568 113.556 96.3316 118.028 95.9476C121.916 95.8516 122.289 101.399 118.403 101.807C104.146 101.414 97.4982 86.8418 95.1149 74.7C94.7805 73.0167 94.5027 71.3368 94.3296 69.6208C94.2867 69.0774 95.0806 68.93 95.2092 69.4871L95.2075 69.4889Z" fill="white"/>
<path d="M96.6941 242.505C74.282 290.656 38.4974 277.372 41.9507 251.762" stroke="#571571" stroke-width="8" stroke-linejoin="round"/>
<path d="M139.277 242.12C180.653 242.12 212.201 193.141 210.802 159.414" stroke="#571571" stroke-width="8" stroke-linejoin="round"/>
<path d="M118.197 229.745C100.55 229.745 85.5692 244.06 86.2431 261.691C87.0884 283.802 102.179 294.857 99.0309 313.535C102.728 315.62 150.722 302.782 150.15 261.691C149.903 244.05 135.844 229.745 118.195 229.745H118.197Z" fill="#6251F5" stroke="#6251F5" stroke-miterlimit="10"/>
<path d="M119.39 296.736C127.268 293.239 130.465 283.22 126.529 274.356C122.593 265.493 113.015 261.143 105.136 264.64C97.2575 268.137 94.0614 278.157 97.9973 287.02C101.933 295.883 111.511 300.233 119.39 296.736Z" fill="#6040AD"/>
<path d="M131.88 261.324C138.178 261.324 143.284 256.219 143.284 249.923C143.284 243.626 138.178 238.521 131.88 238.521C125.582 238.521 120.476 243.626 120.476 249.923C120.476 256.219 125.582 261.324 131.88 261.324Z" fill="white"/>
<path d="M85.8043 317.66C89.8185 317.66 93.0726 314.406 93.0726 310.393C93.0726 306.38 89.8185 303.126 85.8043 303.126C81.7901 303.126 78.5359 306.38 78.5359 310.393C78.5359 314.406 81.7901 317.66 85.8043 317.66Z" fill="#6251F5" stroke="#6251F5" stroke-miterlimit="10"/>
<path d="M85.0824 316.105C87.9574 316.105 90.288 313.775 90.288 310.9C90.288 308.026 87.9574 305.696 85.0824 305.696C82.2074 305.696 79.8767 308.026 79.8767 310.9C79.8767 313.775 82.2074 316.105 85.0824 316.105Z" fill="#6040AD"/>
<path d="M88.0623 310.9C89.7082 310.9 91.0424 309.566 91.0424 307.921C91.0424 306.276 89.7082 304.942 88.0623 304.942C86.4165 304.942 85.0823 306.276 85.0823 307.921C85.0823 309.566 86.4165 310.9 88.0623 310.9Z" fill="white"/>
<path d="M139.867 189.84C139.867 194.677 137.218 200.6 132.979 205.161C129.06 209.39 123.798 212.445 118.004 212.445C112.52 212.445 107.498 209.699 103.668 205.825C99.0553 201.176 96.1404 194.909 96.1404 189.84C96.1404 186.276 97.5807 184.947 100.024 184.659C103.971 184.205 110.557 186.475 118.004 186.475C126.874 186.475 134.5 183.276 137.931 185.246C139.176 185.966 139.869 187.371 139.869 189.84H139.867Z" fill="#571571"/>
<path d="M129.085 195.641C131.271 195.641 133.245 194.533 134.675 192.762C136.107 190.98 136.986 188.511 136.986 185.799C136.986 185.611 136.986 185.434 136.978 185.246C136.266 184.838 135.368 184.659 134.322 184.62C130.32 184.764 124.499 186.473 118.002 186.473C117.829 186.473 117.659 186.466 117.487 186.465C117.342 186.465 117.198 186.473 117.05 186.473C110.56 186.473 104.725 184.75 100.72 184.608C100.48 184.617 100.245 184.632 100.02 184.658C99.6792 184.697 99.362 184.764 99.0602 184.85C99.0362 185.163 99.0156 185.477 99.0156 185.799C99.0156 191.235 102.553 195.641 106.917 195.641H129.084H129.085Z" fill="white" stroke="white" stroke-miterlimit="10"/>
<path d="M132.659 205.161C128.739 209.39 123.477 212.445 117.683 212.445C112.199 212.445 107.177 209.699 103.347 205.825C107.16 203.622 112.599 202.249 118.634 202.249C124.029 202.249 128.953 203.356 132.66 205.159L132.659 205.161Z" fill="#E66DCA"/>
<path d="M129.492 208.307C126.15 210.83 122.213 212.448 118 212.448C113.787 212.448 109.84 210.822 106.498 208.307C107.004 208.139 107.537 208.05 108.089 208.05H127.892C128.442 208.05 128.976 208.139 129.492 208.307Z" fill="white" stroke="white" stroke-miterlimit="10"/>
<path d="M139.864 189.843C139.864 194.677 137.214 200.603 132.976 205.162C131.909 206.317 130.745 207.383 129.492 208.307C126.15 210.83 122.213 212.449 118 212.449C113.787 212.449 109.84 210.822 106.498 208.307C105.494 207.551 104.552 206.725 103.662 205.828C99.0499 201.173 96.135 194.907 96.135 189.843C96.135 186.271 97.5753 184.948 100.019 184.663C103.966 184.2 110.552 186.475 117.998 186.475C126.868 186.475 134.495 183.276 137.926 185.249C139.171 185.969 139.864 187.373 139.864 189.843Z" stroke="#571571" stroke-miterlimit="10"/>
<path d="M169.765 131.996C169.551 133.031 162.898 111.777 146.539 115.801C144.208 116.374 142.844 112.796 143.466 110.481C144.09 108.154 146.39 107.344 148.788 107.409C163.683 107.812 172.075 120.798 169.765 131.997V131.996Z" fill="black" stroke="black" stroke-linejoin="round"/>
<path d="M66.235 131.996C66.4494 133.031 73.1022 111.777 89.4616 115.801C91.7918 116.374 93.1566 112.796 92.5342 110.481C91.9101 108.154 89.6108 107.344 87.212 107.409C72.3169 107.812 63.9254 120.798 66.235 131.997V131.996Z" fill="black" stroke="black" stroke-linejoin="round"/>
<path d="M148.547 182.097C160.259 182.097 169.753 170.881 169.753 157.045C169.753 143.21 160.259 131.994 148.547 131.994C136.834 131.994 127.34 143.21 127.34 157.045C127.34 170.881 136.834 182.097 148.547 182.097Z" fill="white" stroke="white" stroke-miterlimit="10"/>
<path d="M148.546 171.776C156.684 171.776 163.28 165.181 163.28 157.045C163.28 148.91 156.684 142.315 148.546 142.315C140.409 142.315 133.812 148.91 133.812 157.045C133.812 165.181 140.409 171.776 148.546 171.776Z" fill="black"/>
<path d="M164.23 157.045C155.565 157.045 148.543 167.504 148.543 180.398C148.543 167.504 141.522 157.045 132.865 157.045C141.522 157.045 148.543 146.587 148.543 133.693C148.543 146.587 155.565 157.045 164.23 157.045Z" fill="#FCEE21"/>
<path d="M87.4538 182.097C99.1659 182.097 108.66 170.881 108.66 157.045C108.66 143.21 99.1659 131.994 87.4538 131.994C75.7416 131.994 66.2471 143.21 66.2471 157.045C66.2471 170.881 75.7416 182.097 87.4538 182.097Z" fill="white" stroke="white" stroke-miterlimit="10"/>
<path d="M87.4537 171.776C95.591 171.776 102.188 165.181 102.188 157.045C102.188 148.91 95.591 142.315 87.4537 142.315C79.3163 142.315 72.7197 148.91 72.7197 157.045C72.7197 165.181 79.3163 171.776 87.4537 171.776Z" fill="black"/>
<path d="M103.136 157.045C94.4702 157.045 87.4487 167.504 87.4487 180.398C87.4487 167.504 80.4273 157.045 71.77 157.045C80.4273 157.045 87.4487 146.587 87.4487 133.693C87.4487 146.587 94.4702 157.045 103.136 157.045Z" fill="#FCEE21"/>
<path d="M154.771 192.665C149.764 192.665 145.692 189.439 145.692 185.474C145.692 181.509 149.764 178.283 154.771 178.283C159.777 178.283 163.85 181.509 163.85 185.474C163.85 189.439 159.777 192.665 154.771 192.665Z" fill="#E66DCA"/>
<path d="M154.771 179.171C159.294 179.171 162.962 181.992 162.962 185.474C162.962 188.955 159.294 191.777 154.771 191.777C150.247 191.777 146.58 188.955 146.58 185.474C146.58 181.992 150.247 179.171 154.771 179.171ZM154.771 177.393C152.194 177.393 149.75 178.18 147.895 179.608C145.901 181.142 144.803 183.225 144.803 185.474C144.803 187.723 145.901 189.804 147.895 191.34C149.75 192.768 152.194 193.554 154.771 193.554C157.348 193.554 159.791 192.768 161.646 191.34C163.641 189.806 164.738 187.723 164.738 185.474C164.738 183.225 163.641 181.144 161.646 179.608C159.791 178.18 157.348 177.393 154.771 177.393Z" fill="#6251F5"/>
<path d="M81.2297 192.665C76.2229 192.665 72.1506 189.439 72.1506 185.474C72.1506 181.509 76.2229 178.283 81.2297 178.283C86.2364 178.283 90.3087 181.509 90.3087 185.474C90.3087 189.439 86.2364 192.665 81.2297 192.665Z" fill="#E66DCA"/>
<path d="M81.2297 179.171C85.7529 179.171 89.4205 181.992 89.4205 185.474C89.4205 188.955 85.7529 191.777 81.2297 191.777C76.7064 191.777 73.0388 188.955 73.0388 185.474C73.0388 181.992 76.7064 179.171 81.2297 179.171ZM81.2297 177.393C78.6526 177.393 76.2092 178.18 74.354 179.608C72.3598 181.142 71.2625 183.225 71.2625 185.474C71.2625 187.723 72.3598 189.804 74.354 191.34C76.2092 192.768 78.6526 193.554 81.2297 193.554C83.8068 193.554 86.2502 192.768 88.1054 191.34C90.0995 189.806 91.1969 187.723 91.1969 185.474C91.1969 183.225 90.0995 181.144 88.1054 179.608C86.2502 178.18 83.8068 177.393 81.2297 177.393Z" fill="#6251F5"/>
<path d="M233.126 144.484C231.002 152.136 228.298 158.4 222.105 161.903C219.339 163.467 216.186 164.355 212.828 164.355C211.808 164.355 210.81 164.272 209.828 164.113C209.828 164.113 203.794 163.624 198.247 160.637C193.606 158.141 189.31 153.901 189.129 146.76C188.832 134.93 191.366 132.242 195.761 133.19C199.156 126.959 200.759 121.489 208.057 121.489C218.929 121.489 237.266 129.573 233.126 144.482V144.484Z" fill="white" stroke="black" stroke-miterlimit="10"/>
<path d="M195.761 133.192C197.193 133.504 198.828 134.207 200.627 135.107C207.93 138.755 210.876 139.254 208.96 144.804C206.738 151.227 197.457 149.22 196.107 144.228" stroke="black" stroke-miterlimit="10" stroke-linecap="round"/>
<path d="M208.055 146.535C211.443 148.515 222.527 154.135 225.973 145.466" stroke="black" stroke-miterlimit="10" stroke-linecap="round"/>
<path d="M222.911 165.601C222.911 171.503 217.052 176.279 209.826 176.279C202.601 176.279 196.747 171.501 196.747 165.601C196.747 163.808 197.29 162.118 198.244 160.637C203.791 163.626 209.824 164.113 209.824 164.113C210.807 164.272 211.805 164.355 212.825 164.355C216.182 164.355 219.337 163.467 222.101 161.903C222.622 163.055 222.907 164.3 222.907 165.599L222.911 165.601Z" fill="white" stroke="black" stroke-miterlimit="10"/>
<path d="M16.8807 224.87C19.0052 232.522 21.7092 238.786 27.9025 242.289C30.6682 243.853 33.8214 244.741 37.1787 244.741C38.1989 244.741 39.1968 244.658 40.1793 244.499C40.1793 244.499 46.2131 244.01 51.76 241.023C56.4015 238.527 60.6967 234.287 60.8785 227.146C61.1751 215.316 58.6409 212.628 54.2462 213.576C50.8512 207.345 49.2481 201.875 41.9505 201.875C31.078 201.875 12.7416 209.959 16.8807 224.868V224.87Z" fill="white" stroke="black" stroke-miterlimit="10"/>
<path d="M53.9017 224.614C52.5523 229.606 43.2692 231.613 41.0487 225.19C39.1335 219.64 42.0809 219.141 49.3819 215.493C51.1805 214.593 52.8163 213.892 54.248 213.578" stroke="black" stroke-miterlimit="10" stroke-linecap="round"/>
<path d="M41.9505 226.921C38.5624 228.901 27.4789 234.521 24.0325 225.852" stroke="black" stroke-miterlimit="10" stroke-linecap="round"/>
<path d="M27.0967 245.987C27.0967 251.889 32.9556 256.665 40.1811 256.665C47.4015 256.665 53.2604 251.887 53.2604 245.987C53.2604 244.194 52.7169 242.504 51.7635 241.023C46.2167 244.012 40.1828 244.499 40.1828 244.499C39.2003 244.658 38.2024 244.741 37.1822 244.741C33.8249 244.741 30.67 243.853 27.906 242.289C27.3847 243.441 27.1001 244.686 27.1001 245.985L27.0967 245.987Z" fill="white" stroke="black" stroke-miterlimit="10"/>
<path d="M144.82 38.6931L149.14 47.4424C149.693 48.5635 150.762 49.34 152 49.52L161.658 50.9239C164.774 51.3765 166.017 55.2043 163.764 57.4002L156.775 64.2108C155.88 65.0833 155.472 66.3398 155.683 67.5706L157.332 77.1873C157.864 80.2883 154.608 82.6539 151.821 81.19L143.183 76.649C142.077 76.0679 140.755 76.0679 139.649 76.649L131.011 81.19C128.224 82.6539 124.968 80.2883 125.5 77.1873L127.149 67.5706C127.36 66.3381 126.952 65.0816 126.057 64.2108L119.068 57.4002C116.813 55.2043 118.058 51.3765 121.174 50.9239L130.832 49.52C132.069 49.34 133.139 48.5635 133.692 47.4424L138.012 38.6931C139.404 35.8715 143.43 35.8715 144.822 38.6931H144.82Z" fill="#6251F5" stroke="#6251F5" stroke-miterlimit="10"/>
<path d="M141.636 73.7948C147.163 73.7948 151.643 69.3158 151.643 63.7907C151.643 58.2656 147.163 53.7866 141.636 53.7866C136.11 53.7866 131.63 58.2656 131.63 63.7907C131.63 69.3158 136.11 73.7948 141.636 73.7948Z" fill="#6040AD"/>
<path d="M148.017 59.5379C149.968 59.5379 151.55 57.9561 151.55 56.0049C151.55 54.0537 149.968 52.4719 148.017 52.4719C146.065 52.4719 144.483 54.0537 144.483 56.0049C144.483 57.9561 146.065 59.5379 148.017 59.5379Z" fill="white"/>
<path d="M159.793 51.5685L152.192 50.4114" stroke="white" stroke-miterlimit="10" stroke-linecap="round"/>
<path d="M147.62 47.8469C147.62 47.8469 144.748 40.1707 143.672 38.8114C142.595 37.4503 140.28 37.6474 139.368 38.8114" stroke="white" stroke-miterlimit="10" stroke-linecap="round"/>
<path d="M138.447 40.1879L138.164 40.9387" stroke="white" stroke-miterlimit="10" stroke-linecap="round"/>
</svg>
