<svg width="219" height="283" viewBox="0 0 219 283" fill="none" xmlns="http://www.w3.org/2000/svg">
<path d="M102.127 56.6521C89.473 46.0669 83.4117 34.6177 80.8621 28.5031C80.0133 26.4683 77.3453 25.9661 75.8262 27.5637C33.1127 72.4399 38.6476 120.115 38.6476 120.115C38.6476 155.166 67.0678 183.579 102.127 183.579C137.186 183.579 165.607 155.166 165.607 120.115C165.607 85.065 137.186 56.6521 102.127 56.6521Z" fill="#6251F5" stroke="#6251F5" stroke-miterlimit="10"/>
<path d="M102.717 170.947C121.326 170.947 136.411 155.865 136.411 137.261C136.411 118.657 121.326 103.575 102.717 103.575C84.108 103.575 69.0225 118.657 69.0225 137.261C69.0225 155.865 84.108 170.947 102.717 170.947Z" fill="#6040AD"/>
<path d="M124.034 68.258C124.774 65.962 123.123 63.3755 120.346 62.4809C117.568 61.5864 114.717 62.7225 113.977 65.0185C113.237 67.3145 114.889 69.901 117.666 70.7956C120.443 71.6901 123.294 70.5541 124.034 68.258Z" fill="white"/>
<path d="M79.9241 33.9118C81.8428 41.672 85.2121 49.9465 90.9047 55.6394C94.0699 58.7798 98.2725 60.7546 102.744 60.3706C106.633 60.2746 107.005 65.8218 103.12 66.2297C88.8626 65.8372 82.2149 51.2647 79.8315 39.123C79.4972 37.4397 79.2194 35.7597 79.0462 34.0438C79.0034 33.5004 79.7972 33.353 79.9258 33.9101L79.9241 33.9118Z" fill="white"/>
<path d="M81.4108 206.929C58.9988 255.079 23.2142 241.796 26.6674 216.185" stroke="#571571" stroke-width="8" stroke-linejoin="round"/>
<path d="M123.994 206.543C165.37 206.543 196.918 157.565 195.519 123.838" stroke="#571571" stroke-width="8" stroke-linejoin="round"/>
<path d="M102.914 194.168C85.2669 194.168 70.286 208.483 70.9599 226.114C71.8052 248.225 86.8958 259.28 83.7477 277.958C87.4444 280.043 135.439 267.205 134.866 226.114C134.619 208.473 120.561 194.168 102.912 194.168H102.914Z" fill="#6251F5" stroke="#6251F5" stroke-miterlimit="10"/>
<path d="M104.107 261.16C111.985 257.663 115.181 247.643 111.245 238.78C107.309 229.917 97.7317 225.567 89.853 229.064C81.9743 232.561 78.7781 242.58 82.7141 251.444C86.6501 260.307 96.2278 264.657 104.107 261.16Z" fill="#6040AD"/>
<path d="M116.597 225.747C122.895 225.747 128.001 220.642 128.001 214.346C128.001 208.049 122.895 202.944 116.597 202.944C110.299 202.944 105.193 208.049 105.193 214.346C105.193 220.642 110.299 225.747 116.597 225.747Z" fill="white"/>
<path d="M70.5211 282.083C74.5353 282.083 77.7894 278.83 77.7894 274.816C77.7894 270.803 74.5353 267.55 70.5211 267.55C66.5068 267.55 63.2527 270.803 63.2527 274.816C63.2527 278.83 66.5068 282.083 70.5211 282.083Z" fill="#6251F5" stroke="#6251F5" stroke-miterlimit="10"/>
<path d="M69.7992 280.528C72.6742 280.528 75.0048 278.198 75.0048 275.323C75.0048 272.449 72.6742 270.119 69.7992 270.119C66.9242 270.119 64.5935 272.449 64.5935 275.323C64.5935 278.198 66.9242 280.528 69.7992 280.528Z" fill="#6040AD"/>
<path d="M72.7792 275.324C74.4251 275.324 75.7593 273.99 75.7593 272.345C75.7593 270.699 74.4251 269.365 72.7792 269.365C71.1334 269.365 69.7992 270.699 69.7992 272.345C69.7992 273.99 71.1334 275.324 72.7792 275.324Z" fill="white"/>
<path d="M124.584 154.263C124.584 159.1 121.935 165.023 117.696 169.584C113.777 173.813 108.514 176.868 102.721 176.868C97.2372 176.868 92.215 174.122 88.3845 170.248C83.7721 165.599 80.8572 159.332 80.8572 154.263C80.8572 150.699 82.2975 149.371 84.7408 149.083C88.6879 148.628 95.2739 150.898 102.721 150.898C111.59 150.898 119.217 147.699 122.648 149.669C123.893 150.389 124.586 151.794 124.586 154.263H124.584Z" fill="#571571"/>
<path d="M113.802 160.064C115.988 160.064 117.962 158.956 119.392 157.186C120.824 155.403 121.703 152.934 121.703 150.223C121.703 150.034 121.703 149.857 121.695 149.669C120.983 149.261 120.085 149.083 119.039 149.043C115.037 149.187 109.215 150.896 102.719 150.896C102.545 150.896 102.376 150.889 102.204 150.888C102.059 150.888 101.915 150.896 101.767 150.896C95.2771 150.896 89.4422 149.174 85.4368 149.031C85.1967 149.04 84.9618 149.055 84.7372 149.081C84.396 149.12 84.0788 149.187 83.777 149.273C83.753 149.587 83.7324 149.9 83.7324 150.223C83.7324 155.658 87.2697 160.064 91.6335 160.064H113.8H113.802Z" fill="white" stroke="white" stroke-miterlimit="10"/>
<path d="M117.375 169.584C113.456 173.813 108.194 176.868 102.4 176.868C96.9163 176.868 91.8941 174.122 88.0636 170.248C91.877 168.045 97.3158 166.672 103.351 166.672C108.746 166.672 113.67 167.779 117.377 169.583L117.375 169.584Z" fill="#E66DCA"/>
<path d="M114.208 172.73C110.867 175.253 106.93 176.871 102.717 176.871C98.504 176.871 94.5569 175.245 91.2151 172.73C91.7209 172.562 92.2542 172.473 92.8063 172.473H112.609C113.159 172.473 113.692 172.562 114.208 172.73Z" fill="white" stroke="white" stroke-miterlimit="10"/>
<path d="M124.58 154.267C124.58 159.101 121.931 165.027 117.693 169.585C116.626 170.74 115.462 171.807 114.208 172.731C110.867 175.254 106.93 176.872 102.717 176.872C98.5041 176.872 94.5569 175.245 91.2151 172.731C90.2103 171.975 89.269 171.148 88.3791 170.252C83.7667 165.596 80.8518 159.331 80.8518 154.267C80.8518 150.694 82.2921 149.371 84.7355 149.087C88.6826 148.624 95.2685 150.898 102.715 150.898C111.585 150.898 119.212 147.7 122.643 149.673C123.888 150.393 124.58 151.797 124.58 154.267Z" stroke="#571571" stroke-miterlimit="10"/>
<path d="M154.482 96.4186C154.268 97.454 147.615 76.1995 131.255 80.2245C128.925 80.797 127.56 77.2195 128.183 74.9036C128.807 72.5774 131.106 71.7666 133.505 71.8317C148.4 72.2346 156.792 85.2214 154.482 96.4203V96.4186Z" fill="black" stroke="black" stroke-linejoin="round"/>
<path d="M50.9518 96.4186C51.1662 97.454 57.819 76.1995 74.1784 80.2245C76.5086 80.797 77.8734 77.2195 77.251 74.9036C76.6269 72.5774 74.3276 71.7666 71.9288 71.8317C57.0337 72.2346 48.6422 85.2214 50.9518 96.4203V96.4186Z" fill="black" stroke="black" stroke-linejoin="round"/>
<path d="M133.263 146.52C144.975 146.52 154.47 135.304 154.47 121.468C154.47 107.633 144.975 96.417 133.263 96.417C121.551 96.417 112.057 107.633 112.057 121.468C112.057 135.304 121.551 146.52 133.263 146.52Z" fill="white" stroke="white" stroke-miterlimit="10"/>
<path d="M133.263 136.199C141.401 136.199 147.997 129.604 147.997 121.468C147.997 113.333 141.401 106.738 133.263 106.738C125.126 106.738 118.529 113.333 118.529 121.468C118.529 129.604 125.126 136.199 133.263 136.199Z" fill="black"/>
<path d="M148.947 121.469C140.281 121.469 133.26 131.927 133.26 144.821C133.26 131.927 126.238 121.469 117.581 121.469C126.238 121.469 133.26 111.01 133.26 98.1162C133.26 111.01 140.281 121.469 148.947 121.469Z" fill="#FCEE21"/>
<path d="M72.1706 146.52C83.8827 146.52 93.3773 135.304 93.3773 121.468C93.3773 107.633 83.8827 96.417 72.1706 96.417C60.4584 96.417 50.9639 107.633 50.9639 121.468C50.9639 135.304 60.4584 146.52 72.1706 146.52Z" fill="white" stroke="white" stroke-miterlimit="10"/>
<path d="M72.1706 136.199C80.3079 136.199 86.9045 129.604 86.9045 121.468C86.9045 113.333 80.3079 106.738 72.1706 106.738C64.0333 106.738 57.4366 113.333 57.4366 121.468C57.4366 129.604 64.0333 136.199 72.1706 136.199Z" fill="black"/>
<path d="M87.8527 121.469C79.1868 121.469 72.1654 131.927 72.1654 144.821C72.1654 131.927 65.1439 121.469 56.4867 121.469C65.1439 121.469 72.1654 111.01 72.1654 98.1162C72.1654 111.01 79.1868 121.469 87.8527 121.469Z" fill="#FCEE21"/>
<path d="M139.487 157.087C134.481 157.087 130.408 153.861 130.408 149.896C130.408 145.931 134.481 142.705 139.487 142.705C144.494 142.705 148.566 145.931 148.566 149.896C148.566 153.861 144.494 157.087 139.487 157.087Z" fill="#E66DCA"/>
<path d="M139.487 143.593C144.011 143.593 147.678 146.415 147.678 149.896C147.678 153.378 144.011 156.199 139.487 156.199C134.964 156.199 131.297 153.378 131.297 149.896C131.297 146.415 134.964 143.593 139.487 143.593ZM139.487 141.815C136.91 141.815 134.467 142.602 132.612 144.03C130.618 145.564 129.52 147.647 129.52 149.896C129.52 152.145 130.618 154.226 132.612 155.762C134.467 157.19 136.91 157.977 139.487 157.977C142.064 157.977 144.508 157.19 146.363 155.762C148.357 154.228 149.455 152.145 149.455 149.896C149.455 147.647 148.357 145.566 146.363 144.03C144.508 142.602 142.064 141.815 139.487 141.815Z" fill="#6251F5"/>
<path d="M65.9463 157.087C60.9396 157.087 56.8673 153.861 56.8673 149.896C56.8673 145.931 60.9396 142.705 65.9463 142.705C70.9531 142.705 75.0254 145.931 75.0254 149.896C75.0254 153.861 70.9531 157.087 65.9463 157.087Z" fill="#E66DCA"/>
<path d="M65.9463 143.593C70.4696 143.593 74.1372 146.415 74.1372 149.896C74.1372 153.378 70.4696 156.199 65.9463 156.199C61.4231 156.199 57.7555 153.378 57.7555 149.896C57.7555 146.415 61.4231 143.593 65.9463 143.593ZM65.9463 141.815C63.3692 141.815 60.9259 142.602 59.0706 144.03C57.0765 145.564 55.9791 147.647 55.9791 149.896C55.9791 152.145 57.0765 154.226 59.0706 155.762C60.9259 157.19 63.3692 157.977 65.9463 157.977C68.5235 157.977 70.9668 157.19 72.8221 155.762C74.8162 154.228 75.9136 152.145 75.9136 149.896C75.9136 147.647 74.8162 145.566 72.8221 144.03C70.9668 142.602 68.5235 141.815 65.9463 141.815Z" fill="#6251F5"/>
<path d="M217.843 108.906C215.719 116.559 213.015 122.822 206.821 126.326C204.056 127.89 200.903 128.778 197.545 128.778C196.525 128.778 195.527 128.695 194.545 128.536C194.545 128.536 188.511 128.047 182.964 125.059C178.322 122.564 174.027 118.324 173.845 111.183C173.549 99.3532 176.083 96.6653 180.478 97.6133C183.873 91.3821 185.476 85.9121 192.773 85.9121C203.646 85.9121 221.982 93.9963 217.843 108.905V108.906Z" fill="white" stroke="black" stroke-miterlimit="10"/>
<path d="M180.478 97.6152C181.909 97.9272 183.545 98.63 185.344 99.53C192.646 103.178 195.592 103.677 193.677 109.227C191.455 115.65 182.173 113.643 180.824 108.651" stroke="black" stroke-miterlimit="10" stroke-linecap="round"/>
<path d="M192.772 110.958C196.16 112.938 207.243 118.557 210.69 109.889" stroke="black" stroke-miterlimit="10" stroke-linecap="round"/>
<path d="M207.627 130.024C207.627 135.926 201.768 140.702 194.543 140.702C187.317 140.702 181.464 135.924 181.464 130.024C181.464 128.231 182.007 126.541 182.961 125.06C188.507 128.049 194.541 128.536 194.541 128.536C195.524 128.695 196.522 128.778 197.542 128.778C200.899 128.778 204.054 127.89 206.818 126.326C207.339 127.478 207.624 128.723 207.624 130.022L207.627 130.024Z" fill="white" stroke="black" stroke-miterlimit="10"/>
<path d="M1.59754 189.292C3.72198 196.944 6.42597 203.208 12.6193 206.712C15.385 208.275 18.5382 209.163 21.8955 209.163C22.9157 209.163 23.9136 209.081 24.8961 208.922C24.8961 208.922 30.9299 208.433 36.4768 205.445C41.1183 202.949 45.4135 198.71 45.5953 191.569C45.8919 179.739 43.3577 177.051 38.963 177.999C35.568 171.768 33.9649 166.298 26.6673 166.298C15.7948 166.298 -2.54161 174.382 1.59754 189.29V189.292Z" fill="white" stroke="black" stroke-miterlimit="10"/>
<path d="M38.6184 189.037C37.2689 194.029 27.9859 196.036 25.7654 189.613C23.8501 184.062 26.7976 183.564 34.0986 179.916C35.8972 179.016 37.533 178.315 38.9647 178.001" stroke="black" stroke-miterlimit="10" stroke-linecap="round"/>
<path d="M26.6673 191.344C23.2792 193.324 12.1957 198.943 8.74927 190.274" stroke="black" stroke-miterlimit="10" stroke-linecap="round"/>
<path d="M11.8134 210.41C11.8134 216.312 17.6723 221.087 24.8978 221.087C32.1182 221.087 37.9771 216.31 37.9771 210.41C37.9771 208.617 37.4335 206.926 36.4802 205.445C30.9333 208.435 24.8995 208.922 24.8995 208.922C23.917 209.081 22.9191 209.163 21.8989 209.163C18.5416 209.163 15.3867 208.275 12.6227 206.712C12.1014 207.864 11.8168 209.109 11.8168 210.408L11.8134 210.41Z" fill="white" stroke="black" stroke-miterlimit="10"/>
<path d="M129.537 3.11619L133.856 11.8655C134.41 12.9866 135.478 13.7631 136.716 13.9431L146.375 15.347C149.491 15.7996 150.734 19.6274 148.481 21.8233L141.492 28.6338C140.597 29.5064 140.189 30.7629 140.4 31.9937L142.049 41.6104C142.581 44.7114 139.324 47.077 136.538 45.6131L127.9 41.0721C126.794 40.491 125.472 40.491 124.366 41.0721L115.728 45.6131C112.941 47.077 109.685 44.7114 110.217 41.6104L111.866 31.9937C112.077 30.7612 111.669 29.5047 110.774 28.6338L103.785 21.8233C101.53 19.6274 102.775 15.7996 105.891 15.347L115.549 13.9431C116.785 13.7631 117.855 12.9866 118.409 11.8655L122.728 3.11619C124.121 0.294604 128.147 0.294604 129.539 3.11619H129.537Z" fill="#6251F5" stroke="#6251F5" stroke-miterlimit="10"/>
<path d="M126.353 38.2182C131.88 38.2182 136.36 33.7392 136.36 28.2141C136.36 22.689 131.88 18.21 126.353 18.21C120.827 18.21 116.346 22.689 116.346 28.2141C116.346 33.7392 120.827 38.2182 126.353 38.2182Z" fill="#6040AD"/>
<path d="M132.733 23.9605C134.685 23.9605 136.267 22.3787 136.267 20.4275C136.267 18.4763 134.685 16.8945 132.733 16.8945C130.782 16.8945 129.199 18.4763 129.199 20.4275C129.199 22.3787 130.782 23.9605 132.733 23.9605Z" fill="white"/>
<path d="M144.509 15.992L136.908 14.835" stroke="white" stroke-miterlimit="10" stroke-linecap="round"/>
<path d="M132.337 12.27C132.337 12.27 129.465 4.59382 128.388 3.23446C127.312 1.87338 124.997 2.07051 124.085 3.23446" stroke="white" stroke-miterlimit="10" stroke-linecap="round"/>
<path d="M123.164 4.61133L122.881 5.36215" stroke="white" stroke-miterlimit="10" stroke-linecap="round"/>
</svg>
