<svg width="345" height="167" viewBox="0 0 345 167" fill="none" xmlns="http://www.w3.org/2000/svg">
<path d="M240.352 67.8259C240.724 67.357 241.422 67.2416 241.957 67.5711L292.693 100.551L284.061 111.415L240.466 69.4468C240.029 69.0352 239.983 68.3299 240.352 67.8259Z" fill="#07B7EE"/>
<path d="M234.849 75.915C240.443 81.0289 264.856 104.697 264.373 130.257L248.974 132.269C248.974 132.269 256.17 110.736 232.719 77.7928C232.339 77.2679 232.368 76.5897 232.772 76.0817C233.234 75.4605 234.145 75.3561 234.766 75.8178C234.805 75.8488 234.845 75.8799 234.849 75.915Z" fill="#ED3F03"/>
<path d="M246.953 60.6402C253.199 64.9335 281.773 83.3655 306.562 77.117L305.041 61.6616C305.041 61.6616 285.696 73.5741 248.301 58.1414C247.704 57.8901 247.049 58.0715 246.646 58.5795C246.149 59.2048 246.249 60.0813 246.875 60.5781L246.953 60.6402Z" fill="#FCB424"/>
<path d="M310.757 123.987C304.562 121.073 298.851 121.763 293.471 125.966C293.405 126.01 293.3 126.022 293.257 125.955C293.218 125.924 293.21 125.854 293.241 125.815C296.221 119.577 295.496 113.87 291.254 108.46C291.211 108.393 291.198 108.288 291.265 108.245C291.296 108.206 291.366 108.198 291.405 108.229C297.643 111.209 303.319 110.524 308.764 106.277C308.831 106.234 308.936 106.222 308.979 106.288C309.018 106.319 309.026 106.389 308.999 106.463C306.05 112.662 306.7 118.342 310.943 123.753C311.021 123.815 311.029 123.885 310.967 123.963C310.94 124.037 310.835 124.049 310.757 123.987Z" fill="#07B7EE"/>
<path d="M255.754 161.082C254.313 154.391 250.293 150.305 243.631 148.581C243.557 148.554 243.514 148.488 243.537 148.379C243.564 148.304 243.595 148.265 243.665 148.257C250.426 146.808 254.512 142.788 256.201 136.13C256.228 136.056 256.294 136.013 256.403 136.036C256.477 136.063 256.517 136.094 256.525 136.164C257.939 142.929 261.959 147.015 268.621 148.739C268.695 148.766 268.738 148.832 268.715 148.941C268.688 149.015 268.657 149.054 268.587 149.062C261.861 150.507 257.771 154.492 256.043 161.12C256.016 161.194 255.915 161.241 255.841 161.214C255.798 161.148 255.758 161.117 255.754 161.082Z" fill="#ED3F03"/>
<path d="M334.024 62.5702C327.177 62.6438 322.257 59.6905 319.107 53.5863C319.064 53.5202 318.99 53.4931 318.888 53.5402C318.822 53.5833 318.791 53.6224 318.799 53.6925C318.951 60.6019 315.924 65.4953 309.819 68.6452C309.753 68.6883 309.726 68.7625 309.773 68.8636C309.816 68.9297 309.856 68.9608 309.926 68.9528C316.835 68.801 321.724 71.7933 324.909 77.8936C324.952 77.9597 325.027 77.9867 325.128 77.9396C325.194 77.8965 325.225 77.8575 325.217 77.7873C325.104 70.909 328.062 66.0237 334.127 62.8427C334.193 62.7996 334.22 62.7254 334.177 62.6593C334.134 62.5932 334.095 62.5622 334.024 62.5702ZM221.008 125.667L217.468 125.149C217.105 125.084 216.697 125.237 216.483 125.546L214.283 128.356C213.91 128.824 213.279 128.897 212.814 128.559C212.658 128.435 212.533 128.272 212.478 128.1L211.173 124.769C211.023 124.395 210.711 124.147 210.352 124.117L206.812 123.599C206.235 123.523 205.82 123.002 205.896 122.425C205.907 122.21 205.992 122.023 206.12 121.902L208.324 119.127C208.573 118.815 208.634 118.417 208.488 118.078L207.183 114.747C206.944 114.206 207.226 113.57 207.771 113.365C207.938 113.275 208.149 113.251 208.367 113.297L211.908 113.815C212.27 113.88 212.679 113.727 212.892 113.418L215.097 110.644C215.469 110.175 216.1 110.102 216.565 110.44C216.722 110.564 216.847 110.727 216.902 110.899L218.207 114.23C218.352 114.569 218.669 114.852 219.028 114.882L222.568 115.401C223.145 115.477 223.56 115.997 223.484 116.574C223.469 116.754 223.384 116.941 223.26 117.097L221.059 119.907C220.811 120.22 220.75 120.617 220.895 120.956L222.2 124.288C222.44 124.828 222.157 125.465 221.648 125.665C221.398 125.658 221.188 125.682 221.008 125.667Z" fill="#FCB424"/>
<path d="M287.605 41.8481L284.065 41.33C283.702 41.2649 283.293 41.4183 283.08 41.7269L280.84 44.5053C280.468 44.9743 279.837 45.0465 279.372 44.709C279.216 44.5848 279.09 44.4216 279.035 44.2503L277.73 40.9186C277.585 40.58 277.268 40.2966 276.909 40.2666L273.369 39.7484C272.792 39.6724 272.377 39.1516 272.453 38.5745C272.468 38.3952 272.553 38.2078 272.677 38.0515L274.882 35.2771C275.13 34.9645 275.191 34.5667 275.046 34.2282L273.741 30.8965C273.501 30.3556 273.784 29.7194 274.294 29.5189C274.461 29.4287 274.671 29.4046 274.89 29.4506L278.43 29.9688C278.793 30.0339 279.201 29.8805 279.415 29.5719L281.619 26.7974C281.957 26.3325 282.623 26.2563 283.088 26.5938C283.244 26.718 283.369 26.8812 283.424 27.0525L284.729 30.3842C284.875 30.7228 285.191 31.0062 285.585 31.0322L289.126 31.5504C289.703 31.6264 290.117 32.1472 290.041 32.7243C290.026 32.9036 289.941 33.091 289.817 33.2473L287.578 36.0257C287.329 36.3383 287.268 36.7361 287.414 37.0746L288.719 40.4063C288.958 40.9472 288.676 41.5834 288.131 41.7879C287.995 41.839 287.784 41.8631 287.605 41.8481Z" fill="#ED3F03"/>
<path d="M103.965 67.8259C103.592 67.357 102.895 67.2416 102.36 67.5711L51.6243 100.551L60.2555 111.415L103.85 69.4468C104.288 69.0352 104.334 68.3299 103.965 67.8259Z" fill="#07B7EE"/>
<path d="M109.468 75.915C103.874 81.0289 79.4605 104.697 79.9439 130.257L95.343 132.269C95.343 132.269 88.1467 110.736 111.598 77.7928C111.978 77.2679 111.949 76.5897 111.545 76.0817C111.083 75.4605 110.172 75.3561 109.551 75.8178C109.511 75.8488 109.472 75.8799 109.468 75.915Z" fill="#ED3F03"/>
<path d="M97.3641 60.6402C91.118 64.9335 62.5439 83.3655 37.7548 77.117L39.2758 61.6616C39.2758 61.6616 58.6209 73.5741 96.0162 58.1414C96.6133 57.8901 97.2675 58.0715 97.6711 58.5795C98.1678 59.2048 98.0675 60.0813 97.4422 60.5781L97.3641 60.6402Z" fill="#FCB424"/>
<path d="M33.5601 123.987C39.7548 121.073 45.4659 121.763 50.8456 125.966C50.9117 126.01 51.0169 126.022 51.06 125.955C51.0991 125.924 51.1071 125.854 51.076 125.815C48.096 119.577 48.8205 113.87 53.0633 108.46C53.1064 108.393 53.1184 108.288 53.0523 108.245C53.0213 108.206 52.9512 108.198 52.9121 108.229C46.6743 111.209 40.9982 110.524 35.5524 106.277C35.4863 106.234 35.3811 106.222 35.338 106.288C35.2989 106.319 35.2909 106.389 35.3179 106.463C38.2669 112.662 37.6165 118.342 33.3738 123.753C33.2956 123.815 33.2876 123.885 33.3497 123.963C33.3767 124.037 33.4819 124.049 33.5601 123.987Z" fill="#07B7EE"/>
<path d="M88.5624 161.082C90.0034 154.391 94.0235 150.305 100.686 148.581C100.76 148.554 100.803 148.488 100.78 148.379C100.753 148.304 100.722 148.265 100.652 148.257C93.891 146.808 89.8045 142.788 88.1159 136.13C88.0889 136.056 88.0228 136.013 87.9136 136.036C87.8395 136.063 87.8004 136.094 87.7923 136.164C86.3784 142.929 82.3583 147.015 75.696 148.739C75.6219 148.766 75.5788 148.832 75.6018 148.941C75.6288 149.015 75.6599 149.054 75.73 149.062C82.4557 150.507 86.5462 154.492 88.2739 161.12C88.3009 161.194 88.4021 161.241 88.4762 161.214C88.5193 161.148 88.5584 161.117 88.5624 161.082Z" fill="#ED3F03"/>
<path d="M10.2924 62.5702C17.1397 62.6438 22.0601 59.6905 25.2101 53.5863C25.2532 53.5202 25.3273 53.4931 25.4285 53.5402C25.4946 53.5833 25.5256 53.6224 25.5176 53.6925C25.3659 60.6019 28.3932 65.4953 34.4975 68.6452C34.5636 68.6883 34.5906 68.7625 34.5435 68.8636C34.5004 68.9297 34.4614 68.9608 34.3912 68.9528C27.4819 68.801 22.5925 71.7933 19.4075 77.8936C19.3644 77.9597 19.2903 77.9867 19.1891 77.9396C19.123 77.8965 19.0919 77.8575 19.1 77.7873C19.2126 70.909 16.2554 66.0237 10.1902 62.8427C10.1241 62.7996 10.0971 62.7254 10.1401 62.6593C10.1832 62.5932 10.2223 62.5622 10.2924 62.5702ZM123.308 125.667L126.849 125.149C127.212 125.084 127.62 125.237 127.834 125.546L130.034 128.356C130.406 128.824 131.038 128.897 131.503 128.559C131.659 128.435 131.784 128.272 131.839 128.1L133.144 124.769C133.294 124.395 133.606 124.147 133.965 124.117L137.505 123.599C138.082 123.523 138.497 123.002 138.421 122.425C138.41 122.21 138.325 122.023 138.197 121.902L135.993 119.127C135.744 118.815 135.683 118.417 135.828 118.078L137.134 114.747C137.373 114.206 137.091 113.57 136.546 113.365C136.378 113.275 136.168 113.251 135.95 113.297L132.409 113.815C132.047 113.88 131.638 113.727 131.425 113.418L129.22 110.644C128.848 110.175 128.217 110.102 127.752 110.44C127.595 110.564 127.47 110.727 127.415 110.899L126.11 114.23C125.965 114.569 125.648 114.852 125.289 114.882L121.749 115.401C121.172 115.477 120.757 115.997 120.833 116.574C120.848 116.754 120.933 116.941 121.057 117.097L123.258 119.907C123.506 120.22 123.567 120.617 123.422 120.956L122.117 124.288C121.877 124.828 122.159 125.465 122.669 125.665C122.919 125.658 123.129 125.682 123.308 125.667Z" fill="#FCB424"/>
<path d="M56.7119 41.8481L60.2524 41.33C60.615 41.2649 61.0237 41.4183 61.237 41.7269L63.4765 44.5053C63.849 44.9743 64.4801 45.0465 64.9451 44.709C65.1014 44.5848 65.2266 44.4216 65.2818 44.2503L66.5868 40.9186C66.7321 40.58 67.0488 40.2966 67.4074 40.2666L70.9479 39.7484C71.5249 39.6724 71.9398 39.1516 71.8638 38.5745C71.8488 38.3952 71.7637 38.2078 71.6395 38.0515L69.4351 35.2771C69.1867 34.9645 69.1257 34.5667 69.271 34.2282L70.5761 30.8965C70.8156 30.3556 70.5333 29.7194 70.0234 29.5189C69.8561 29.4287 69.6457 29.4046 69.4273 29.4506L65.8869 29.9688C65.5242 30.0339 65.1155 29.8805 64.9022 29.5719L62.6978 26.7974C62.3603 26.3325 61.6942 26.2563 61.2293 26.5938C61.0729 26.718 60.9477 26.8812 60.8925 27.0525L59.5875 30.3842C59.4422 30.7228 59.1255 31.0062 58.7318 31.0322L55.1914 31.5504C54.6143 31.6264 54.1995 32.1472 54.2755 32.7243C54.2905 32.9036 54.3756 33.091 54.4998 33.2473L56.7392 36.0257C56.9876 36.3383 57.0486 36.7361 56.9033 37.0746L55.5982 40.4063C55.3587 40.9472 55.6411 41.5834 56.186 41.7879C56.3222 41.839 56.5326 41.8631 56.7119 41.8481Z" fill="#ED3F03"/>
<path fill-rule="evenodd" clip-rule="evenodd" d="M193.388 120.55C183.579 114.511 178.899 103.503 177.043 90.3916H162.955C160.845 105.283 155.427 115.122 146.61 120.55L168.874 123.161L193.388 120.55Z" fill="#FFBC08"/>
<path fill-rule="evenodd" clip-rule="evenodd" d="M197.991 142.873V120.55H142.006V142.873H197.991Z" fill="#474E5E"/>
<path fill-rule="evenodd" clip-rule="evenodd" d="M192.824 78.6068L199.939 69.4448C206.414 59.2587 210.554 46.4292 212.36 30.9541L213.375 8.0804C213.354 7.00082 213.326 5.91096 213.289 4.81184C213.2 2.12832 211.106 0 208.556 0H131.442C128.892 0 126.798 2.12832 126.709 4.81184C126.672 5.90113 126.644 6.99068 126.624 8.0804L127.638 30.9541C129.444 46.4281 133.584 59.2597 140.059 69.4448L147.174 78.6058C152.249 83.9667 158.262 88.2644 165.216 91.498C168.375 92.9673 171.624 92.9673 174.782 91.498C181.736 88.2644 187.749 83.9677 192.824 78.6068Z" fill="#FFDC0B"/>
<path fill-rule="evenodd" clip-rule="evenodd" d="M130.695 141.568H209.302V155.998H130.695V141.568Z" fill="#353943"/>
<path d="M119.774 25.9493C118.403 28.239 119.002 31.3009 121.113 32.7876C123.223 34.2744 126.045 33.6246 127.416 31.3348C129.943 27.0957 130.843 22.1841 130.233 17.5142C128.473 4.04202 115.21 -3.86257 103.686 1.91576C95.0687 6.23511 91.1318 15.9791 92.16 25.9339C93.5892 39.7833 106.041 58.0087 136.484 77.4381C139.703 79.1109 138.37 84.2322 134.287 83.1383C131.92 82.1975 129.299 83.5156 128.431 86.0829C127.273 89.5067 129.405 92.2273 132.517 92.6817C146.879 94.7823 153.65 76.9003 139.854 69.3279C112.391 51.8016 102.391 36.0953 101.231 24.8491C100.644 19.186 102.498 13.4138 107.505 10.903C113.412 7.94187 120.292 11.9332 121.199 18.8713C121.513 21.2783 121.059 23.7963 119.774 25.9493ZM220.223 25.9493C221.593 28.239 220.994 31.3009 218.884 32.7876C216.773 34.2744 213.951 33.6246 212.582 31.3348C210.052 27.0957 209.154 22.1841 209.764 17.5142C211.524 4.04202 224.788 -3.86257 236.312 1.91576C244.928 6.23511 248.866 15.9791 247.838 25.9339C246.407 39.7833 233.955 58.0087 203.512 77.4381C200.294 79.1109 201.626 84.2322 205.71 83.1383C208.076 82.1975 210.699 83.5156 211.567 86.0829C212.723 89.5067 210.592 92.2273 207.481 92.6817C193.117 94.7823 186.347 76.9003 200.144 69.3279C227.604 51.8016 237.605 36.0953 238.767 24.8491C239.351 19.186 237.498 13.4138 232.491 10.903C226.584 7.94187 219.705 11.9332 218.798 18.8713C218.484 21.2783 218.939 23.7963 220.223 25.9493Z" fill="#FFBC08"/>
<path fill-rule="evenodd" clip-rule="evenodd" d="M169.999 12.0273L176.815 26.395L192.585 28.438L181.027 39.3613L183.957 54.9916L169.999 47.3749L156.039 54.9916L158.969 39.3613L147.411 28.438L163.181 26.395L169.999 12.0273Z" fill="#FF9E05"/>
<path fill-rule="evenodd" clip-rule="evenodd" d="M199.062 36.9108L199.667 10.5176H204.803C204.803 10.5176 203.595 30.7335 199.062 36.9108Z" fill="#F9F9F9"/>
</svg>
