<svg width="65" height="64" viewBox="0 0 65 64" fill="none" xmlns="http://www.w3.org/2000/svg">
<path d="M33.1277 49.1272C32.6375 48.5813 31.7976 48.5361 31.2517 49.0263C30.7058 49.5164 30.6607 50.3563 31.1508 50.9022C31.641 51.4481 32.4809 51.4933 33.0268 51.0031C33.5726 50.513 33.6178 49.6731 33.1277 49.1272Z" fill="#FCB424"/>
<path d="M26.9499 54.6741C26.4582 54.1264 26.5032 53.2899 27.0508 52.7981L28.8674 51.167C29.415 50.6753 30.2516 50.7203 30.7433 51.2679C31.2291 51.8089 31.1901 52.6521 30.6424 53.1439L28.8259 54.775C28.2782 55.2667 27.4357 55.215 26.9499 54.6741ZM34.9227 55.1029L33.2915 53.2864C32.7998 52.7387 32.8448 51.9022 33.3925 51.4104C33.9401 50.9187 34.7767 50.9637 35.2684 51.5113L36.8995 53.3279C37.3912 53.8755 37.3462 54.7121 36.7986 55.2038C36.2509 55.6956 35.4144 55.6506 34.9227 55.1029ZM33.535 48.7613C33.0432 48.2137 33.0882 47.3771 33.6359 46.8854L35.4524 45.2543C36.0001 44.7625 36.8366 44.8075 37.3284 45.3552C37.8201 45.9028 37.7751 46.7394 37.2274 47.2311L35.4109 48.8622C34.8632 49.354 34.0207 49.3023 33.535 48.7613ZM29.0099 48.5179L27.3788 46.7014C26.8871 46.1537 26.9321 45.3171 27.4797 44.8254C28.0273 44.3337 28.8639 44.3787 29.3556 44.9263L30.9867 46.7429C31.4785 47.2905 31.4335 48.1271 30.8858 48.6188C30.3382 49.1105 29.5016 49.0655 29.0099 48.5179Z" fill="#FCB424"/>
<path d="M32.2451 11.7766C31.7549 11.2307 30.915 11.1855 30.3692 11.6757C29.8233 12.1658 29.7781 13.0057 30.2682 13.5516C30.7584 14.0975 31.5983 14.1427 32.1442 13.6525C32.6901 13.1624 32.7353 12.3225 32.2451 11.7766Z" fill="#00C853"/>
<path d="M26.0675 17.3235C25.5758 16.7758 25.6208 15.9393 26.1684 15.4476L27.985 13.8164C28.5326 13.3247 29.3692 13.3697 29.8609 13.9174C30.3526 14.465 30.3076 15.3016 29.76 15.7933L27.9434 17.4244C27.3958 17.9161 26.5592 17.8711 26.0675 17.3235ZM34.0402 17.7523L32.4091 15.9358C31.9174 15.3881 31.9624 14.5516 32.51 14.0599C33.0576 13.5681 33.8942 13.6131 34.3859 14.1608L36.017 15.9773C36.5088 16.525 36.4638 17.3615 35.9161 17.8533C35.3685 18.345 34.5319 18.3 34.0402 17.7523ZM32.6525 11.4107C32.1608 10.8631 32.2058 10.0265 32.7534 9.5348L34.57 7.90369C35.1176 7.41196 35.9542 7.45696 36.4459 8.0046C36.9376 8.55224 36.8926 9.3888 36.345 9.88053L34.5284 11.5116C33.9808 12.0034 33.1442 11.9584 32.6525 11.4107ZM28.1274 11.1673L26.4963 9.35077C26.0046 8.80313 26.0496 7.96656 26.5973 7.47483C27.1449 6.9831 27.9815 7.0281 28.4732 7.57574L30.1043 9.3923C30.596 9.93993 30.551 10.7765 30.0034 11.2682C29.4557 11.76 28.6192 11.715 28.1274 11.1673Z" fill="#00C853"/>
<path d="M14.0238 30.6584C13.5336 30.1125 12.6937 30.0674 12.1478 30.5575C11.602 31.0477 11.5568 31.8876 12.0469 32.4335C12.5371 32.9793 13.377 33.0245 13.9229 32.5344C14.4688 32.0442 14.5139 31.2043 14.0238 30.6584Z" fill="#07B7EE"/>
<path d="M7.84617 36.2053C7.35444 35.6577 7.39944 34.8211 7.94708 34.3294L9.76364 32.6983C10.3113 32.2066 11.1478 32.2516 11.6396 32.7992C12.1313 33.3468 12.0863 34.1834 11.5387 34.6751L9.72211 36.3062C9.17447 36.798 8.33191 36.7463 7.84617 36.2053ZM17.6948 36.7351C17.1472 37.2268 16.3106 37.1818 15.8189 36.6342L14.1878 34.8176C13.6961 34.27 13.7411 33.4334 14.2887 32.9417C14.8363 32.45 15.6729 32.495 16.1646 33.0426L17.7957 34.8592C18.2815 35.4001 18.2425 36.2434 17.6948 36.7351ZM18.2246 26.8864C18.7163 27.4341 18.6713 28.2706 18.1237 28.7624L16.3071 30.3935C15.7595 30.8852 14.9229 30.8402 14.4312 30.2926C13.9395 29.7449 13.9845 28.9084 14.5321 28.4166L16.3487 26.7855C16.8903 26.2871 17.7329 26.3388 18.2246 26.8864ZM8.36994 26.35C8.91758 25.8583 9.75415 25.9033 10.2459 26.4509L11.877 28.2675C12.3687 28.8151 12.3237 29.6517 11.7761 30.1434C11.2284 30.6351 10.3919 30.5901 9.90014 30.0425L8.26904 28.2259C7.7833 27.685 7.82231 26.8417 8.36994 26.35Z" fill="#07B7EE"/>
<path d="M41.0963 34.8674C41.3584 35.5488 41.0246 36.319 40.3364 36.5871C40.012 36.7095 39.6624 36.7097 39.3457 36.5719C38.1647 36.0762 36.5494 35.6207 35.5546 36.2727C34.6325 36.8714 34.3953 38.3268 34.3854 38.8666C34.4068 39.4143 34.3951 42.5853 32.2662 43.7611C30.8449 44.5427 29.0146 44.1836 26.8327 42.6807C25.3862 41.6876 24.5177 41.5265 24.1832 41.7182C23.6852 41.9965 23.4682 43.3132 23.5066 44.1352C23.5371 44.8678 22.97 45.4856 22.2374 45.5161C21.5175 45.5473 20.899 44.9928 20.8552 44.2723C20.8369 43.9026 20.734 40.6174 22.8836 39.411C24.2989 38.6227 26.1225 38.9878 28.329 40.5048C29.7569 41.4905 30.6388 41.6396 30.9792 41.4545C31.5033 41.1649 31.7557 39.7802 31.7314 38.9335L31.7281 38.8762C31.7289 38.7427 31.7839 35.5931 34.09 34.0774C35.6717 33.0311 37.7866 33.0622 40.3726 34.142C40.7094 34.2618 40.9679 34.5363 41.0963 34.8674Z" fill="#00C853"/>
<path d="M43.7809 10.0068C44.0776 10.1626 44.3122 10.4103 44.4479 10.7227C44.7127 11.3535 44.3797 11.9903 43.7171 12.1389C42.5653 12.4011 41.1323 12.9279 40.8763 13.9056C40.6431 14.8147 41.4577 15.9772 41.8115 16.3712C42.1913 16.7539 44.3256 19.0234 43.6422 20.976C43.1843 22.2798 41.6657 22.9799 39.1384 23.0537C37.4705 23.1038 36.7529 23.4466 36.6478 23.746C36.4898 24.2015 37.2271 25.2645 37.8009 25.8229C38.3207 26.3212 38.3506 27.0664 37.8711 27.4728C37.3916 27.8792 36.5757 27.8036 36.0559 27.3053C35.79 27.0494 33.5103 24.7658 34.1831 22.7744C34.6283 21.47 36.1529 20.7766 38.7055 20.7041C40.3608 20.6533 41.0724 20.3039 41.1781 19.9918C41.3502 19.5116 40.5902 18.3966 39.9991 17.8055L39.9572 17.7587C39.8672 17.6586 37.7836 15.3918 38.358 13.1028C38.7541 11.5288 40.2365 10.439 42.7657 9.85682C43.1254 9.78719 43.4782 9.8443 43.7809 10.0068Z" fill="#FCB424"/>
<path d="M34.3704 28.1559C34.8241 28.7014 34.7425 29.5106 34.1969 29.9643C33.9638 30.1615 33.6595 30.2659 33.3546 30.2622C33.2465 30.2628 30.6947 30.2018 27.3084 28.8756C25.3292 28.0954 23.4723 27.0484 21.7813 25.7562C19.6209 24.0892 17.7525 22.0755 16.2541 19.8021C15.8598 19.2152 16.0235 18.4168 16.6104 18.0225C17.1973 17.6282 17.9957 17.792 18.3899 18.3788C20.9008 22.1559 24.1807 24.8683 28.1385 26.4414C31.1126 27.631 33.3722 27.689 33.3909 27.6964C33.7792 27.6855 34.1319 27.8634 34.3704 28.1559ZM48.2868 40.1481C48.3708 40.2416 48.4414 40.3471 48.4926 40.4579C48.7948 41.1034 48.525 41.8643 47.8795 42.1665C46.3849 42.8933 44.9416 43.7309 43.5508 44.654C40.7279 46.5614 39.7661 48.0161 39.7973 48.736C39.8233 49.3158 40.6852 49.9532 42.1444 50.4766C42.8179 50.7163 43.166 51.4532 42.9204 52.1201C42.6808 52.7936 41.9438 53.1417 41.2769 52.8961C38.6701 51.9677 37.3067 50.6105 37.2226 48.8644C37.1255 46.8889 38.7311 44.8078 42.1342 42.5121C43.6178 41.5177 45.172 40.6289 46.7774 39.8508C47.2927 39.6052 47.9091 39.7274 48.2868 40.1481Z" fill="#9266CC"/>
<path d="M25.8529 31.594C25.2534 30.9264 24.2262 30.8712 23.5586 31.4706C22.891 32.0701 22.8358 33.0972 23.4352 33.7648C24.0347 34.4324 25.0618 34.4877 25.7294 33.8882C26.3971 33.2888 26.4523 32.2616 25.8529 31.594Z" fill="#FCB424"/>
<path d="M15.8853 42.7268C15.2859 42.0592 14.2587 42.004 13.5911 42.6034C12.9235 43.2029 12.8682 44.23 13.4677 44.8976C14.0671 45.5652 15.0943 45.6205 15.7619 45.021C16.4295 44.4216 16.4848 43.3944 15.8853 42.7268Z" fill="#ED3F03"/>
<path d="M49.8754 21.604C49.1998 20.8516 48.0421 20.7893 47.2897 21.4649C46.5372 22.1405 46.4749 23.2982 47.1506 24.0507C47.8262 24.8031 48.9839 24.8654 49.7363 24.1898C50.4888 23.5141 50.551 22.3565 49.8754 21.604Z" fill="#9266CC"/>
<path d="M28.2341 20.4082C27.7638 19.8844 26.958 19.841 26.4343 20.3113C25.9105 20.7816 25.8671 21.5875 26.3374 22.1112C26.8077 22.635 27.6136 22.6783 28.1373 22.208C28.6611 21.7377 28.7044 20.9319 28.2341 20.4082Z" fill="#07B7EE"/>
<path d="M5.88048 29.5023C5.36713 28.9306 4.48752 28.8833 3.91582 29.3967C3.34411 29.91 3.29679 30.7896 3.81013 31.3613C4.32348 31.933 5.20309 31.9803 5.77479 31.467C6.3465 30.9537 6.39382 30.074 5.88048 29.5023Z" fill="#9266CC"/>
</svg>
