<svg width="130" height="178" viewBox="0 0 130 178" fill="none" xmlns="http://www.w3.org/2000/svg">
    <path
        d="M65.1173 50.3355C52.4632 39.7823 46.402 28.3679 43.8523 22.2718C43.0035 20.2432 40.3356 19.7425 38.8164 21.3353C-3.89708 66.0755 1.63779 113.606 1.63779 113.606C1.63779 148.551 30.058 176.877 65.1173 176.877C100.177 176.877 128.597 148.551 128.597 113.606C128.597 78.6623 100.177 50.3355 65.1173 50.3355Z"
        fill="#6251F5" stroke="#6251F5" stroke-miterlimit="10" />
    <path
        d="M65.7071 164.284C84.3161 164.284 99.4016 149.248 99.4016 130.7C99.4016 112.152 84.3161 97.1162 65.7071 97.1162C47.0982 97.1162 32.0127 112.152 32.0127 130.7C32.0127 149.248 47.0982 164.284 65.7071 164.284Z"
        fill="#6040AD" />
    <path
        d="M87.0241 61.9063C87.7641 59.6173 86.1128 57.0386 83.3357 56.1467C80.5587 55.2549 77.7076 56.3875 76.9676 58.6766C76.2276 60.9656 77.8789 63.5443 80.6559 64.4362C83.4329 65.328 86.284 64.1954 87.0241 61.9063Z"
        fill="white" />
    <path
        d="M42.9145 27.6637C44.8332 35.4004 48.2024 43.6498 53.895 49.3254C57.0603 52.4563 61.2629 54.4251 65.7347 54.0423C69.6235 53.9466 69.9955 59.4769 66.1102 59.8837C51.8529 59.4923 45.2052 44.964 42.8219 32.8591C42.4875 31.1808 42.2098 29.506 42.0366 27.7953C41.9937 27.2535 42.7876 27.1065 42.9162 27.662L42.9145 27.6637Z"
        fill="white" />
    <path
        d="M89.1205 31.8613C97.6366 31.8613 104.54 24.9803 104.54 16.4922C104.54 8.00404 97.6366 1.12305 89.1205 1.12305C80.6044 1.12305 73.7007 8.00404 73.7007 16.4922C73.7007 24.9803 80.6044 31.8613 89.1205 31.8613Z"
        fill="#6251F5" stroke="#6251F5" stroke-miterlimit="10" />
    <path
        d="M87.3768 29.8528C92.6211 29.8528 96.8725 25.6154 96.8725 20.3883C96.8725 15.1612 92.6211 10.9238 87.3768 10.9238C82.1325 10.9238 77.8811 15.1612 77.8811 20.3883C77.8811 25.6154 82.1325 29.8528 87.3768 29.8528Z"
        fill="#6040AD" />
    <path
        d="M94.4838 16.2697C97.3228 16.2697 99.6243 13.9758 99.6243 11.1461C99.6243 8.31638 97.3228 6.02246 94.4838 6.02246C91.6447 6.02246 89.3433 8.31638 89.3433 11.1461C89.3433 13.9758 91.6447 16.2697 94.4838 16.2697Z"
        fill="white" />
    <path
        d="M87.5723 152.097C87.5723 155.968 84.9232 160.707 80.6846 164.357C76.7649 167.741 71.5026 170.186 65.7089 170.186C60.2254 170.186 55.2033 167.989 51.3727 164.889C46.7604 161.168 43.8455 156.154 43.8455 152.097C43.8455 149.244 45.2858 148.181 47.7291 147.951C51.6762 147.587 58.2622 149.403 65.7089 149.403C74.5787 149.403 82.2054 146.843 85.6364 148.421C86.8813 148.996 87.574 150.121 87.574 152.097H87.5723Z"
        fill="#571571" />
    <path
        d="M76.7906 156.738C78.9768 156.738 80.9504 155.853 82.3804 154.434C83.8121 153.007 84.6917 151.032 84.6917 148.863C84.6917 148.713 84.6917 148.571 84.6831 148.42C83.9716 148.094 83.0731 147.952 82.0271 147.92C78.0252 148.036 72.204 149.403 65.7072 149.403C65.534 149.403 65.3643 149.398 65.1928 149.396C65.047 149.396 64.903 149.403 64.7556 149.403C58.2656 149.403 52.4307 148.026 48.4253 147.911C48.1853 147.918 47.9503 147.93 47.7257 147.95C47.3845 147.983 47.0673 148.036 46.7655 148.104C46.7415 148.355 46.7209 148.605 46.7209 148.863C46.7209 153.212 50.2582 156.738 54.622 156.738H76.7889H76.7906Z"
        fill="white" stroke="white" stroke-miterlimit="10" />
    <path
        d="M80.3638 164.357C76.4441 167.741 71.1819 170.186 65.3881 170.186C59.9047 170.186 54.8825 167.988 51.052 164.888C54.8654 163.125 60.3042 162.027 66.3398 162.027C71.734 162.027 76.6585 162.913 80.3655 164.357H80.3638Z"
        fill="#E66DCA" />
    <path
        d="M87.5723 152.097C87.5723 155.968 84.9232 160.707 80.6846 164.357C76.7649 167.741 71.5026 170.186 65.7089 170.186C60.2254 170.186 55.2033 167.989 51.3727 164.889C46.7604 161.168 43.8455 156.154 43.8455 152.097C43.8455 149.244 45.2858 148.181 47.7291 147.951C51.6762 147.587 58.2622 149.403 65.7089 149.403C74.5787 149.403 82.2054 146.843 85.6364 148.421C86.8813 148.996 87.574 150.121 87.574 152.097H87.5723Z"
        stroke="#571571" stroke-miterlimit="10" />
    <path
        d="M35.1608 139.93C46.8729 139.93 56.3675 128.749 56.3675 114.955C56.3675 101.161 46.8729 89.9795 35.1608 89.9795C23.4487 89.9795 13.9541 101.161 13.9541 114.955C13.9541 128.749 23.4487 139.93 35.1608 139.93Z"
        fill="white" stroke="white" stroke-miterlimit="10" />
    <path
        d="M35.1607 128.403C42.6125 128.403 48.6533 122.382 48.6533 114.955C48.6533 107.528 42.6125 101.507 35.1607 101.507C27.709 101.507 21.6682 107.528 21.6682 114.955C21.6682 122.382 27.709 128.403 35.1607 128.403Z"
        fill="black" stroke="black" stroke-miterlimit="10" />
    <path
        d="M30.7266 114.955C33.6717 114.955 36.0591 112.576 36.0591 109.64C36.0591 106.705 33.6717 104.325 30.7266 104.325C27.7815 104.325 25.394 106.705 25.394 109.64C25.394 112.576 27.7815 114.955 30.7266 114.955Z"
        fill="white" />
    <path
        d="M40.2293 124.403C42.1923 124.403 43.7837 122.817 43.7837 120.86C43.7837 118.904 42.1923 117.317 40.2293 117.317C38.2662 117.317 36.6748 118.904 36.6748 120.86C36.6748 122.817 38.2662 124.403 40.2293 124.403Z"
        fill="white" />
    <path
        d="M96.2536 139.93C107.966 139.93 117.46 128.749 117.46 114.955C117.46 101.161 107.966 89.9795 96.2536 89.9795C84.5414 89.9795 75.0469 101.161 75.0469 114.955C75.0469 128.749 84.5414 139.93 96.2536 139.93Z"
        fill="white" stroke="white" stroke-miterlimit="10" />
    <path
        d="M96.2535 128.403C103.705 128.403 109.746 122.382 109.746 114.955C109.746 107.528 103.705 101.507 96.2535 101.507C88.8018 101.507 82.761 107.528 82.761 114.955C82.761 122.382 88.8018 128.403 96.2535 128.403Z"
        fill="black" stroke="black" stroke-miterlimit="10" />
    <path
        d="M91.8211 114.955C94.7661 114.955 97.1536 112.576 97.1536 109.64C97.1536 106.705 94.7661 104.325 91.8211 104.325C88.876 104.325 86.4885 106.705 86.4885 109.64C86.4885 112.576 88.876 114.955 91.8211 114.955Z"
        fill="white" />
    <path
        d="M101.322 124.403C103.285 124.403 104.876 122.817 104.876 120.86C104.876 118.904 103.285 117.317 101.322 117.317C99.359 117.317 97.7676 118.904 97.7676 120.86C97.7676 122.817 99.359 124.403 101.322 124.403Z"
        fill="white" />
    <path
        d="M117.472 96.6771C117.258 97.7093 110.605 76.5193 94.2457 80.532C91.9155 81.1028 90.5507 77.5361 91.1731 75.2273C91.7972 72.9081 94.0966 72.0998 96.4953 72.1647C111.39 72.5663 119.782 85.5138 117.472 96.6788V96.6771Z"
        fill="black" stroke="black" stroke-linejoin="round" />
    <path
        d="M13.9421 96.6771C14.1564 97.7093 20.8092 76.5193 37.1686 80.532C39.4988 81.1028 40.8637 77.5361 40.2412 75.2273C39.6171 72.9081 37.3178 72.0998 34.919 72.1647C20.0239 72.5663 11.6324 85.5138 13.9421 96.6788V96.6771Z"
        fill="black" stroke="black" stroke-linejoin="round" />
    <path
        d="M102.478 150.467C97.471 150.467 93.3987 147.25 93.3987 143.297C93.3987 139.344 97.471 136.128 102.478 136.128C107.484 136.128 111.557 139.344 111.557 143.297C111.557 147.25 107.484 150.467 102.478 150.467Z"
        fill="#E66DCA" />
    <path
        d="M102.478 137.013C107.001 137.013 110.669 139.826 110.669 143.297C110.669 146.768 107.001 149.582 102.478 149.582C97.9545 149.582 94.2869 146.768 94.2869 143.297C94.2869 139.826 97.9545 137.013 102.478 137.013ZM102.478 135.241C99.9006 135.241 97.4572 136.026 95.602 137.449C93.6079 138.979 92.5105 141.055 92.5105 143.297C92.5105 145.54 93.6079 147.614 95.602 149.146C97.4572 150.569 99.9006 151.354 102.478 151.354C105.055 151.354 107.498 150.569 109.353 149.146C111.348 147.616 112.445 145.54 112.445 143.297C112.445 141.055 111.348 138.981 109.353 137.449C107.498 136.026 105.055 135.241 102.478 135.241Z"
        fill="#6251F5" />
    <path
        d="M28.9367 150.467C23.9299 150.467 19.8577 147.25 19.8577 143.297C19.8577 139.344 23.9299 136.128 28.9367 136.128C33.9435 136.128 38.0157 139.344 38.0157 143.297C38.0157 147.25 33.9435 150.467 28.9367 150.467Z"
        fill="#E66DCA" />
    <path
        d="M28.9367 137.013C33.4599 137.013 37.1276 139.826 37.1276 143.297C37.1276 146.768 33.4599 149.582 28.9367 149.582C24.4135 149.582 20.7459 146.768 20.7459 143.297C20.7459 139.826 24.4135 137.013 28.9367 137.013ZM28.9367 135.241C26.3596 135.241 23.9162 136.026 22.061 137.449C20.0669 138.979 18.9695 141.055 18.9695 143.297C18.9695 145.54 20.0669 147.614 22.061 149.146C23.9162 150.569 26.3596 151.354 28.9367 151.354C31.5138 151.354 33.9572 150.569 35.8124 149.146C37.8066 147.616 38.9039 145.54 38.9039 143.297C38.9039 141.055 37.8066 138.981 35.8124 137.449C33.9572 136.026 31.5138 135.241 28.9367 135.241Z"
        fill="#6251F5" />
</svg>
