<svg width="91" height="80" viewBox="0 0 91 80" fill="none" xmlns="http://www.w3.org/2000/svg">
    <path
        d="M43.3333 35.2216L0.0433333 11.8919C0.606667 5.23243 6.19667 0 13 0H73.6667C80.47 0 86.06 5.23243 86.6233 11.8919L43.3333 35.2216ZM42.8133 42.1189C40.3867 46.2703 39 51.0703 39 56.2162C39 60.8865 40.1483 65.2973 42.185 69.1892H13C5.82833 69.1892 0 63.373 0 56.2162V19.2216L41.795 41.773C42.12 41.9459 42.4667 42.0757 42.8133 42.1189ZM86.6667 19.2216V35.9568C82.2467 31.6973 76.4183 28.8649 69.94 28.2595L86.6667 19.2216ZM91 56.2162C91 69.3513 80.3292 80 67.1667 80C54.0042 80 43.3333 69.3513 43.3333 56.2162C43.3333 43.0811 54.0042 32.4324 67.1667 32.4324C80.3292 32.4324 91 43.0811 91 56.2162ZM67.1667 51.8919C64.7725 51.8919 62.8333 53.827 62.8333 56.2162C62.8333 58.6054 64.7725 60.5405 67.1667 60.5405C69.5608 60.5405 71.5 58.6054 71.5 56.2162C71.5 53.827 69.5608 51.8919 67.1667 51.8919ZM54.1667 51.8919C51.7725 51.8919 49.8333 53.827 49.8333 56.2162C49.8333 58.6054 51.7725 60.5405 54.1667 60.5405C56.5608 60.5405 58.5 58.6054 58.5 56.2162C58.5 53.827 56.5608 51.8919 54.1667 51.8919ZM80.1667 51.8919C77.7725 51.8919 75.8333 53.827 75.8333 56.2162C75.8333 58.6054 77.7725 60.5405 80.1667 60.5405C82.5608 60.5405 84.5 58.6054 84.5 56.2162C84.5 53.827 82.5608 51.8919 80.1667 51.8919Z"
        fill="#4B25C3" />
</svg>
