<svg width="65" height="64" viewBox="0 0 65 64" fill="none" xmlns="http://www.w3.org/2000/svg">
<path d="M31.8852 49.1272C32.3753 48.5813 33.2152 48.5361 33.7611 49.0263C34.307 49.5164 34.3522 50.3563 33.862 50.9022C33.3718 51.4481 32.532 51.4933 31.9861 51.0031C31.4402 50.513 31.395 49.6731 31.8852 49.1272Z" fill="#FCB424"/>
<path d="M38.0629 54.6741C38.5546 54.1264 38.5096 53.2899 37.962 52.7981L36.1454 51.167C35.5978 50.6753 34.7612 50.7203 34.2695 51.2679C33.7838 51.8089 33.8228 52.6521 34.3704 53.1439L36.187 54.775C36.7346 55.2667 37.5772 55.215 38.0629 54.6741ZM30.0902 55.1029L31.7213 53.2864C32.213 52.7387 32.168 51.9022 31.6204 51.4104C31.0727 50.9187 30.2362 50.9637 29.7444 51.5113L28.1133 53.3279C27.6216 53.8755 27.6666 54.7121 28.2142 55.2038C28.7619 55.6956 29.5984 55.6506 30.0902 55.1029ZM31.4779 48.7613C31.9696 48.2137 31.9246 47.3771 31.377 46.8854L29.5604 45.2543C29.0128 44.7625 28.1762 44.8075 27.6845 45.3552C27.1927 45.9028 27.2377 46.7394 27.7854 47.2311L29.6019 48.8622C30.1496 49.354 30.9921 49.3023 31.4779 48.7613ZM36.0029 48.5179L37.634 46.7014C38.1258 46.1537 38.0808 45.3171 37.5331 44.8254C36.9855 44.3337 36.1489 44.3787 35.6572 44.9263L34.0261 46.7429C33.5343 47.2905 33.5793 48.1271 34.127 48.6188C34.6746 49.1105 35.5112 49.0655 36.0029 48.5179Z" fill="#FCB424"/>
<path d="M32.7677 11.7766C33.2579 11.2307 34.0978 11.1855 34.6437 11.6757C35.1895 12.1658 35.2347 13.0057 34.7446 13.5516C34.2544 14.0975 33.4145 14.1427 32.8686 13.6525C32.3227 13.1624 32.2776 12.3225 32.7677 11.7766Z" fill="#00C853"/>
<path d="M38.9453 17.3235C39.4371 16.7758 39.3921 15.9393 38.8444 15.4476L37.0279 13.8164C36.4802 13.3247 35.6437 13.3697 35.1519 13.9174C34.6602 14.465 34.7052 15.3016 35.2528 15.7933L37.0694 17.4244C37.617 17.9161 38.4536 17.8711 38.9453 17.3235ZM30.9726 17.7523L32.6037 15.9358C33.0954 15.3881 33.0504 14.5516 32.5028 14.0599C31.9552 13.5681 31.1186 13.6131 30.6269 14.1608L28.9958 15.9773C28.504 16.525 28.549 17.3615 29.0967 17.8533C29.6443 18.345 30.4809 18.3 30.9726 17.7523ZM32.3603 11.4107C32.852 10.8631 32.807 10.0265 32.2594 9.5348L30.4428 7.90369C29.8952 7.41196 29.0586 7.45696 28.5669 8.0046C28.0752 8.55224 28.1202 9.3888 28.6678 9.88053L30.4844 11.5116C31.032 12.0034 31.8686 11.9584 32.3603 11.4107ZM36.8854 11.1673L38.5165 9.35077C39.0082 8.80313 38.9632 7.96656 38.4156 7.47483C37.8679 6.9831 37.0314 7.0281 36.5396 7.57574L34.9085 9.3923C34.4168 9.93993 34.4618 10.7765 35.0094 11.2682C35.5571 11.76 36.3936 11.715 36.8854 11.1673Z" fill="#00C853"/>
<path d="M50.9889 30.6584C51.4791 30.1125 52.319 30.0674 52.8649 30.5575C53.4107 31.0477 53.4559 31.8876 52.9658 32.4335C52.4756 32.9793 51.6357 33.0245 51.0898 32.5344C50.5439 32.0442 50.4988 31.2043 50.9889 30.6584Z" fill="#07B7EE"/>
<path d="M57.1666 36.2053C57.6584 35.6577 57.6134 34.8211 57.0657 34.3294L55.2492 32.6983C54.7015 32.2066 53.865 32.2516 53.3732 32.7992C52.8815 33.3468 52.9265 34.1834 53.4742 34.6751L55.2907 36.3062C55.8383 36.798 56.6809 36.7463 57.1666 36.2053ZM47.318 36.7351C47.8656 37.2268 48.7022 37.1818 49.1939 36.6342L50.825 34.8176C51.3168 34.27 51.2718 33.4334 50.7241 32.9417C50.1765 32.45 49.3399 32.495 48.8482 33.0426L47.2171 34.8592C46.7314 35.4001 46.7704 36.2434 47.318 36.7351ZM46.7882 26.8864C46.2965 27.4341 46.3415 28.2706 46.8891 28.7624L48.7057 30.3935C49.2533 30.8852 50.0899 30.8402 50.5816 30.2926C51.0734 29.7449 51.0284 28.9084 50.4807 28.4166L48.6642 26.7855C48.1225 26.2871 47.28 26.3388 46.7882 26.8864ZM56.6429 26.35C56.0952 25.8583 55.2587 25.9033 54.7669 26.4509L53.1358 28.2675C52.6441 28.8151 52.6891 29.6517 53.2367 30.1434C53.7844 30.6351 54.6209 30.5901 55.1127 30.0425L56.7438 28.2259C57.2295 27.685 57.1905 26.8417 56.6429 26.35Z" fill="#07B7EE"/>
<path d="M23.9165 34.8674C23.6545 35.5488 23.9883 36.319 24.6764 36.5871C25.0008 36.7095 25.3504 36.7097 25.6671 36.5719C26.8481 36.0762 28.4634 35.6207 29.4582 36.2727C30.3803 36.8714 30.6175 38.3268 30.6274 38.8666C30.606 39.4143 30.6177 42.5853 32.7466 43.7611C34.1679 44.5427 35.9982 44.1836 38.1801 42.6807C39.6267 41.6876 40.4951 41.5265 40.8296 41.7182C41.3276 41.9965 41.5446 43.3132 41.5062 44.1352C41.4757 44.8678 42.0428 45.4856 42.7754 45.5161C43.4953 45.5473 44.1138 44.9928 44.1577 44.2723C44.1759 43.9026 44.2789 40.6174 42.1292 39.411C40.7139 38.6227 38.8903 38.9878 36.6838 40.5048C35.2559 41.4905 34.3741 41.6396 34.0336 41.4545C33.5095 41.1649 33.2571 39.7802 33.2815 38.9335L33.2847 38.8762C33.2839 38.7427 33.2289 35.5931 30.9228 34.0774C29.3411 33.0311 27.2262 33.0622 24.6402 34.142C24.3034 34.2618 24.0449 34.5363 23.9165 34.8674Z" fill="#00C853"/>
<path d="M21.2318 10.0068C20.9351 10.1626 20.7005 10.4103 20.5648 10.7227C20.3 11.3535 20.6329 11.9903 21.2956 12.1389C22.4474 12.4011 23.8804 12.9279 24.1364 13.9056C24.3696 14.8147 23.555 15.9772 23.2012 16.3712C22.8214 16.7539 20.6871 19.0234 21.3705 20.976C21.8284 22.2798 23.347 22.9799 25.8743 23.0537C27.5422 23.1038 28.2598 23.4466 28.3649 23.746C28.5229 24.2015 27.7856 25.2645 27.2118 25.8229C26.692 26.3212 26.6621 27.0664 27.1416 27.4728C27.6211 27.8792 28.437 27.8036 28.9568 27.3053C29.2227 27.0494 31.5024 24.7658 30.8296 22.7744C30.3844 21.47 28.8598 20.7766 26.3072 20.7041C24.6519 20.6533 23.9403 20.3039 23.8346 19.9918C23.6625 19.5116 24.4225 18.3966 25.0136 17.8055L25.0555 17.7587C25.1455 17.6586 27.2291 15.3918 26.6547 13.1028C26.2586 11.5288 24.7762 10.439 22.247 9.85682C21.8873 9.78719 21.5345 9.8443 21.2318 10.0068Z" fill="#FCB424"/>
<path d="M30.6424 28.1559C30.1887 28.7014 30.2703 29.5106 30.8159 29.9643C31.049 30.1615 31.3533 30.2659 31.6582 30.2622C31.7663 30.2628 34.3181 30.2018 37.7044 28.8756C39.6836 28.0954 41.5405 27.0484 43.2316 25.7562C45.3919 24.0892 47.2603 22.0755 48.7588 19.8021C49.153 19.2152 48.9893 18.4168 48.4024 18.0225C47.8156 17.6282 47.0172 17.792 46.6229 18.3788C44.1121 22.1559 40.8321 24.8683 36.8743 26.4414C33.9002 27.631 31.6406 27.689 31.6219 27.6964C31.2336 27.6855 30.8809 27.8634 30.6424 28.1559ZM16.726 40.1481C16.642 40.2416 16.5714 40.3471 16.5202 40.4579C16.218 41.1034 16.4878 41.8643 17.1333 42.1665C18.6279 42.8933 20.0712 43.7309 21.462 44.654C24.285 46.5614 25.2467 48.0161 25.2155 48.736C25.1895 49.3158 24.3276 49.9532 22.8684 50.4766C22.1949 50.7163 21.8468 51.4532 22.0924 52.1201C22.332 52.7936 23.069 53.1417 23.7359 52.8961C26.3427 51.9677 27.7062 50.6105 27.7902 48.8644C27.8873 46.8889 26.2817 44.8078 22.8786 42.5121C21.395 41.5177 19.8408 40.6289 18.2354 39.8508C17.7201 39.6052 17.1038 39.7274 16.726 40.1481Z" fill="#9266CC"/>
<path d="M39.16 31.594C39.7594 30.9264 40.7866 30.8712 41.4542 31.4706C42.1218 32.0701 42.177 33.0972 41.5776 33.7648C40.9781 34.4324 39.951 34.4877 39.2834 33.8882C38.6158 33.2888 38.5605 32.2616 39.16 31.594Z" fill="#FCB424"/>
<path d="M49.1275 42.7268C49.7269 42.0592 50.7541 42.004 51.4217 42.6034C52.0893 43.2029 52.1446 44.23 51.5451 44.8976C50.9457 45.5652 49.9185 45.6205 49.2509 45.021C48.5833 44.4216 48.528 43.3944 49.1275 42.7268Z" fill="#ED3F03"/>
<path d="M15.1374 21.604C15.813 20.8516 16.9707 20.7893 17.7232 21.4649C18.4756 22.1405 18.5379 23.2982 17.8622 24.0507C17.1866 24.8031 16.0289 24.8654 15.2765 24.1898C14.5241 23.5141 14.4618 22.3565 15.1374 21.604Z" fill="#9266CC"/>
<path d="M36.7787 20.4082C37.249 19.8844 38.0548 19.841 38.5786 20.3113C39.1023 20.7816 39.1457 21.5875 38.6754 22.1112C38.2051 22.635 37.3993 22.6783 36.8755 22.208C36.3517 21.7377 36.3084 20.9319 36.7787 20.4082Z" fill="#07B7EE"/>
<path d="M59.1322 29.5023C59.6456 28.9306 60.5252 28.8833 61.0969 29.3967C61.6686 29.91 61.7159 30.7896 61.2026 31.3613C60.6892 31.933 59.8096 31.9803 59.2379 31.467C58.6662 30.9537 58.6189 30.074 59.1322 29.5023Z" fill="#9266CC"/>
</svg>
