<svg width="34" height="31" viewBox="0 0 34 31" fill="none" xmlns="http://www.w3.org/2000/svg">
<path fill-rule="evenodd" clip-rule="evenodd" d="M23.721 26.8676V28.857C23.721 29.1716 23.596 29.4732 23.3736 29.6957C23.1512 29.9181 22.8495 30.0431 22.5349 30.0431C22.2204 30.0431 21.9187 29.9181 21.6963 29.6957C21.4738 29.4732 21.3489 29.1716 21.3489 28.857V26.8803H23.3256C23.4584 26.8803 23.5897 26.8755 23.721 26.8676ZM21.3489 26.8803H10.6744C9.10165 26.8803 7.59328 26.2555 6.48114 25.1433C5.36901 24.0312 4.74422 22.5228 4.74422 20.95V16.0762L13.7803 21.0686C14.77 21.6011 15.8762 21.8798 17 21.8798C18.1238 21.8798 19.2301 21.6011 20.2198 21.0686L21.3489 20.4456V26.8803ZM23.721 19.1346L29.2558 16.0762V20.95C29.256 22.4545 28.6843 23.9028 27.6566 25.0015C26.6289 26.1002 25.2221 26.7673 23.721 26.8676V19.1346Z" fill="white"/>
<path fill-rule="evenodd" clip-rule="evenodd" d="M21.3488 18.6378L19.4543 19.6847C18.7001 20.0911 17.8567 20.3038 17 20.3038C16.1433 20.3038 15.2999 20.0911 14.5457 19.6847L1.39795 12.4198C0.502884 11.9248 0 11.0582 0 10.1521C0 9.24434 0.502884 8.37774 1.39795 7.88434L14.5457 0.617829C15.3002 0.212269 16.1434 0 17 0C17.8566 0 18.6998 0.212269 19.4543 0.617829L32.602 7.88434C33.4971 8.37774 34 9.24434 34 10.1521C34 11.0582 33.4971 11.9248 32.602 12.4198L23.7209 17.3269V16.2056C23.7211 16.0499 23.6904 15.8957 23.6307 15.7518C23.571 15.608 23.4834 15.4774 23.373 15.3675L17.8381 9.83262C17.7281 9.72255 17.5974 9.63524 17.4536 9.57568C17.3098 9.51611 17.1557 9.48545 17 9.48545C16.8443 9.48545 16.6902 9.51611 16.5464 9.57568C16.4026 9.63524 16.2719 9.72255 16.1619 9.83262C16.0518 9.94269 15.9645 10.0734 15.9049 10.2172C15.8454 10.361 15.8147 10.5151 15.8147 10.6708C15.8147 10.8264 15.8454 10.9805 15.9049 11.1244C15.9645 11.2682 16.0518 11.3988 16.1619 11.5089L21.3488 16.6975V18.6378Z" fill="white"/>
</svg>
