<svg width="35" height="31" viewBox="0 0 35 31" fill="none" xmlns="http://www.w3.org/2000/svg">
<path fill-rule="evenodd" clip-rule="evenodd" d="M1.42668 12.675C0.513219 12.1699 0 11.2855 0 10.3607C0 9.43432 0.513219 8.54991 1.42668 8.04637L14.8446 0.630526C15.6146 0.216632 16.4752 0 17.3494 0C18.2236 0 19.0841 0.216632 19.8541 0.630526L33.272 8.04637C34.1855 8.54991 34.6987 9.43432 34.6987 10.3607C34.6987 11.2855 34.1855 12.1699 33.272 12.675L19.8541 20.0893C19.0844 20.504 18.2237 20.7211 17.3494 20.7211C16.475 20.7211 15.6143 20.504 14.8446 20.0893L1.42668 12.675ZM2.59676 10.556L16.0147 17.9702C16.4249 18.1911 16.8835 18.3068 17.3494 18.3068C17.8153 18.3068 18.2739 18.1911 18.6841 17.9702L32.102 10.556C32.1907 10.5076 32.2779 10.4495 32.2779 10.3607C32.2779 10.2703 32.1907 10.2138 32.102 10.1638L18.6841 2.74957C18.2739 2.52864 17.8153 2.41299 17.3494 2.41299C16.8835 2.41299 16.4249 2.52864 16.0147 2.74957L2.59676 10.1638C2.50799 10.2138 2.42084 10.2703 2.42084 10.3607C2.42084 10.4495 2.50799 10.5076 2.59676 10.556Z" fill="white"/>
<path fill-rule="evenodd" clip-rule="evenodd" d="M27.4361 14.1176C27.4361 13.7966 27.5636 13.4887 27.7906 13.2618C28.0176 13.0348 28.3255 12.9072 28.6465 12.9072C28.9675 12.9072 29.2754 13.0348 29.5024 13.2618C29.7294 13.4887 29.8569 13.7966 29.8569 14.1176V21.3802C29.8569 22.9853 29.2193 24.5247 28.0843 25.6597C26.9493 26.7946 25.4099 27.4323 23.8048 27.4323H10.8937C9.28854 27.4323 7.74916 26.7946 6.61417 25.6597C5.47918 24.5247 4.84155 22.9853 4.84155 21.3802V14.1176C4.84155 13.7966 4.96908 13.4887 5.19608 13.2618C5.42307 13.0348 5.73095 12.9072 6.05197 12.9072C6.373 12.9072 6.68087 13.0348 6.90787 13.2618C7.13487 13.4887 7.26239 13.7966 7.26239 14.1176V21.3802C7.26239 22.3432 7.64497 23.2669 8.32597 23.9479C9.00696 24.6289 9.93059 25.0114 10.8937 25.0114H23.8048C24.7679 25.0114 25.6915 24.6289 26.3725 23.9479C27.0535 23.2669 27.4361 22.3432 27.4361 21.3802V14.1176Z" fill="white"/>
<path fill-rule="evenodd" clip-rule="evenodd" d="M16.4931 11.7447C16.3808 11.6324 16.2917 11.499 16.2309 11.3523C16.1701 11.2055 16.1388 11.0482 16.1388 10.8894C16.1388 10.7305 16.1701 10.5732 16.2309 10.4264C16.2917 10.2797 16.3808 10.1463 16.4931 10.034C16.72 9.80714 17.0276 9.67969 17.3485 9.67969C17.5073 9.67969 17.6646 9.71098 17.8114 9.77177C17.9581 9.83256 18.0915 9.92166 18.2038 10.034L23.8525 15.6826C24.08 15.9086 24.2075 16.2168 24.2075 16.538V29.4491C24.2075 29.7702 24.08 30.078 23.853 30.305C23.626 30.532 23.3181 30.6596 22.9971 30.6596C22.6761 30.6596 22.3682 30.532 22.1412 30.305C21.9142 30.078 21.7867 29.7702 21.7867 29.4491V17.0399L16.4931 11.7447Z" fill="white"/>
</svg>
