<svg width="24" height="25" viewBox="0 0 24 25" fill="none" xmlns="http://www.w3.org/2000/svg">
    <g clip-path="url(#clip0_82_1909)">
        <path
            d="M23.5078 12.6304C23.5078 11.6472 23.4295 10.9296 23.2598 10.1855H12.2295V14.6235H18.7041C18.5736 15.7264 17.8687 17.3874 16.3022 18.5035L16.2802 18.652L19.7678 21.4022L20.0095 21.4268C22.2285 19.3406 23.5078 16.2712 23.5078 12.6304Z"
            fill="#4285F4" />
        <path
            d="M12.2296 24.3241C15.4016 24.3241 18.0645 23.261 20.0095 21.4274L16.3023 18.5041C15.3102 19.2083 13.9787 19.6999 12.2296 19.6999C9.1228 19.6999 6.48598 17.6139 5.54603 14.7305L5.40825 14.7424L1.7818 17.5992L1.73438 17.7334C3.6663 21.6399 7.63462 24.3241 12.2296 24.3241Z"
            fill="#34A853" />
        <path
            d="M5.54597 14.73C5.29795 13.986 5.15442 13.1886 5.15442 12.3649C5.15442 11.541 5.29795 10.7438 5.53292 9.99967L5.52635 9.84119L1.85446 6.93848L1.73432 6.99664C0.938084 8.61774 0.481201 10.4382 0.481201 12.3649C0.481201 14.2915 0.938084 16.1119 1.73432 17.733L5.54597 14.73Z"
            fill="#FBBC05" />
        <path
            d="M12.2295 5.03028C14.4356 5.03028 15.9237 6.00026 16.7722 6.81086L20.0878 3.51553C18.0515 1.58885 15.4015 0.40625 12.2295 0.40625C7.63462 0.40625 3.6663 3.09031 1.73438 6.99681L5.53297 9.99984C6.48597 7.11645 9.12279 5.03028 12.2295 5.03028Z"
            fill="#EB4335" />
    </g>
    <defs>
        <clipPath id="clip0_82_1909">
            <rect width="23.04" height="24" fill="white" transform="translate(0.47998 0.40625)" />
        </clipPath>
    </defs>
</svg>
