<svg width="136" height="276" viewBox="0 0 136 276" fill="none" xmlns="http://www.w3.org/2000/svg">
    <path
        d="M69.4103 49.9497C56.7562 39.3966 50.6949 27.9821 48.1453 21.8861C47.2965 19.8575 44.6285 19.3567 43.1094 20.9495C0.395891 65.6897 5.93076 113.221 5.93076 113.221C5.93076 148.165 34.351 176.492 69.4103 176.492C104.47 176.492 132.89 148.165 132.89 113.221C132.89 78.2766 104.47 49.9497 69.4103 49.9497Z"
        fill="#6251F5" stroke="#6251F5" stroke-miterlimit="10" />
    <path
        d="M70.0001 163.898C88.609 163.898 103.695 148.862 103.695 130.314C103.695 111.766 88.609 96.7305 70.0001 96.7305C51.3912 96.7305 36.3057 111.766 36.3057 130.314C36.3057 148.862 51.3912 163.898 70.0001 163.898Z"
        fill="#6040AD" />
    <path
        d="M91.317 61.5206C92.057 59.2315 90.4057 56.6529 87.6287 55.761C84.8517 54.8691 82.0006 56.0018 81.2606 58.2908C80.5206 60.5799 82.1719 63.1586 84.9489 64.0504C87.7259 64.9423 90.577 63.8096 91.317 61.5206Z"
        fill="white" />
    <path
        d="M47.2075 27.2779C49.1261 35.0146 52.4954 43.264 58.188 48.9397C61.3532 52.0706 65.5558 54.0393 70.0276 53.6565C73.9164 53.5608 74.2885 59.0912 70.4031 59.4979C56.1459 59.1066 49.4982 44.5783 47.1149 32.4733C46.7805 30.7951 46.5027 29.1203 46.3296 27.4095C46.2867 26.8678 47.0806 26.7208 47.2092 27.2762L47.2075 27.2779Z"
        fill="white" />
    <path
        d="M93.4134 31.4756C101.93 31.4756 108.833 24.5946 108.833 16.1064C108.833 7.6183 101.93 0.737305 93.4134 0.737305C84.8973 0.737305 77.9937 7.6183 77.9937 16.1064C77.9937 24.5946 84.8973 31.4756 93.4134 31.4756Z"
        fill="#6251F5" stroke="#6251F5" stroke-miterlimit="10" />
    <path
        d="M91.6698 29.4671C96.9141 29.4671 101.165 25.2297 101.165 20.0026C101.165 14.7755 96.9141 10.5381 91.6698 10.5381C86.4254 10.5381 82.1741 14.7755 82.1741 20.0026C82.1741 25.2297 86.4254 29.4671 91.6698 29.4671Z"
        fill="#6040AD" />
    <path
        d="M98.7767 15.884C101.616 15.884 103.917 13.59 103.917 10.7603C103.917 7.93064 101.616 5.63672 98.7767 5.63672C95.9377 5.63672 93.6362 7.93064 93.6362 10.7603C93.6362 13.59 95.9377 15.884 98.7767 15.884Z"
        fill="white" />
    <path d="M54.9009 197.593C-5.78893 197.593 -2.96148 229.268 20.169 235.372" stroke="#571571"
        stroke-width="8" stroke-linejoin="round" />
    <path d="M91.1021 199.386C132.478 199.386 144.647 237.04 114.745 237.04" stroke="#571571"
        stroke-width="8" stroke-linejoin="round" />
    <path
        d="M83.9349 238.965C84.7082 245.512 90.0236 250.774 96.5907 251.517C101.088 252.032 105.239 250.482 108.199 247.682C110.999 245.061 112.741 241.34 112.741 237.203C112.741 236.307 112.66 235.43 112.501 234.581C112.19 232.862 110.982 229.505 110.164 227.964C109.284 226.308 108.243 224.713 107.071 223.348C104.128 219.936 100.317 217.952 95.8362 219.892C91.9697 221.567 90.7883 223.373 90.7883 224.879C90.7883 225.171 90.8243 225.438 90.8775 225.686H90.8603C89.7132 225.845 88.6467 226.412 87.8477 227.244C84.986 230.211 83.3948 234.402 83.9366 238.965H83.9349Z"
        fill="white" stroke="black" stroke-linejoin="round" />
    <path
        d="M112.741 237.201C112.741 241.339 110.999 245.059 108.199 247.681C114.118 247.202 118.766 241.949 118.766 235.526C118.766 228.795 113.638 223.336 107.3 223.336C107.22 223.336 107.141 223.336 107.069 223.344C108.242 224.708 109.282 226.303 110.162 227.961C110.98 229.502 112.189 232.859 112.499 234.578C112.659 235.429 112.739 236.306 112.739 237.199L112.741 237.201Z"
        fill="white" stroke="black" stroke-linejoin="round" />
    <path d="M90.8757 225.685C94.8126 225.19 96.4312 228.565 92.875 232.108" stroke="black"
        stroke-linejoin="round" />
    <path
        d="M70.1972 187.049C52.5501 187.049 37.5692 201.321 38.2431 218.898C39.0884 240.942 54.179 251.964 51.0309 270.585C54.7276 272.663 102.722 259.865 102.15 218.898C101.903 201.311 87.8443 187.049 70.1954 187.049H70.1972Z"
        fill="#6251F5" stroke="#6251F5" stroke-miterlimit="10" />
    <path
        d="M71.3897 253.837C79.2684 250.351 82.4646 240.361 78.5286 231.525C74.5926 222.689 65.0149 218.352 57.1362 221.839C49.2575 225.325 46.0614 235.315 49.9973 244.151C53.9333 252.987 63.511 257.324 71.3897 253.837Z"
        fill="#6040AD" />
    <path
        d="M83.8799 218.532C90.1782 218.532 95.284 213.443 95.284 207.165C95.284 200.888 90.1782 195.799 83.8799 195.799C77.5816 195.799 72.4758 200.888 72.4758 207.165C72.4758 213.443 77.5816 218.532 83.8799 218.532Z"
        fill="white" />
    <path
        d="M46.1424 238.965C45.3691 245.512 40.0537 250.774 33.4866 251.517C28.9891 252.032 24.838 250.482 21.8785 247.682C19.0785 245.061 17.3364 241.34 17.3364 237.203C17.3364 236.307 17.417 235.43 17.5765 234.581C17.8868 232.862 19.0956 229.505 19.9135 227.964C20.7931 226.308 21.8339 224.713 23.0068 223.348C25.9491 219.936 29.7607 217.952 34.2411 219.892C38.1076 221.567 39.289 223.373 39.289 224.879C39.289 225.171 39.253 225.438 39.1998 225.686H39.217C40.3641 225.845 41.4306 226.412 42.2296 227.244C45.0913 230.211 46.6825 234.402 46.1407 238.965H46.1424Z"
        fill="white" stroke="black" stroke-miterlimit="10" />
    <path
        d="M17.3365 237.201C17.3365 241.339 19.0786 245.059 21.8786 247.681C15.9597 247.202 11.3113 241.949 11.3113 235.526C11.3113 229.104 16.4398 223.336 22.7771 223.336C22.8577 223.336 22.9366 223.336 23.0086 223.344C21.8358 224.708 20.795 226.303 19.9154 227.961C19.0975 229.502 17.8886 232.859 17.5783 234.578C17.4188 235.429 17.3382 236.306 17.3382 237.199L17.3365 237.201Z"
        fill="white" stroke="black" stroke-miterlimit="10" />
    <path d="M37.2007 232.108C33.6463 228.565 35.2632 225.19 39.2 225.685" stroke="black"
        stroke-miterlimit="10" />
    <path
        d="M37.8043 274.697C41.8185 274.697 45.0726 271.454 45.0726 267.453C45.0726 263.451 41.8185 260.208 37.8043 260.208C33.7901 260.208 30.5359 263.451 30.5359 267.453C30.5359 271.454 33.7901 274.697 37.8043 274.697Z"
        fill="#6251F5" stroke="#6251F5" stroke-miterlimit="10" />
    <path
        d="M37.0824 273.147C39.9574 273.147 42.288 270.824 42.288 267.958C42.288 265.093 39.9574 262.77 37.0824 262.77C34.2074 262.77 31.8767 265.093 31.8767 267.958C31.8767 270.824 34.2074 273.147 37.0824 273.147Z"
        fill="#6040AD" />
    <path
        d="M40.0623 267.958C41.7082 267.958 43.0424 266.628 43.0424 264.988C43.0424 263.347 41.7082 262.018 40.0623 262.018C38.4165 262.018 37.0823 263.347 37.0823 264.988C37.0823 266.628 38.4165 267.958 40.0623 267.958Z"
        fill="white" />
    <path
        d="M91.8653 151.711C91.8653 155.582 89.2161 160.321 84.9775 163.971C81.0578 167.355 75.7956 169.801 70.0018 169.801C64.5184 169.801 59.4962 167.603 55.6657 164.503C51.0533 160.782 48.1384 155.768 48.1384 151.711C48.1384 148.859 49.5787 147.796 52.0221 147.565C55.9692 147.201 62.5551 149.017 70.0018 149.017C78.8717 149.017 86.4984 146.457 89.9294 148.035C91.1742 148.611 91.867 149.735 91.867 151.711H91.8653Z"
        fill="#571571" />
    <path
        d="M81.0836 156.352C83.2698 156.352 85.2433 155.467 86.6733 154.049C88.1051 152.622 88.9847 150.646 88.9847 148.477C88.9847 148.327 88.9847 148.185 88.9761 148.035C88.2645 147.708 87.3661 147.566 86.3201 147.534C82.3181 147.65 76.4969 149.017 70.0002 149.017C69.827 149.017 69.6572 149.012 69.4858 149.011C69.34 149.011 69.196 149.017 69.0485 149.017C62.5586 149.017 56.7237 147.64 52.7183 147.525C52.4782 147.532 52.2433 147.544 52.0187 147.565C51.6775 147.597 51.3603 147.65 51.0585 147.719C51.0345 147.97 51.0139 148.219 51.0139 148.477C51.0139 152.827 54.5512 156.352 58.915 156.352H81.0819H81.0836Z"
        fill="white" stroke="white" stroke-miterlimit="10" />
    <path
        d="M84.6568 163.971C80.7371 167.355 75.4749 169.8 69.6811 169.8C64.1977 169.8 59.1755 167.603 55.345 164.502C59.1583 162.739 64.5972 161.642 70.6327 161.642C76.027 161.642 80.9515 162.527 84.6585 163.971H84.6568Z"
        fill="#E66DCA" />
    <path
        d="M91.8653 151.711C91.8653 155.582 89.2161 160.321 84.9775 163.971C81.0579 167.355 75.7956 169.801 70.0018 169.801C64.5184 169.801 59.4962 167.603 55.6657 164.503C51.0533 160.782 48.1384 155.768 48.1384 151.711C48.1384 148.859 49.5787 147.796 52.0221 147.565C55.9692 147.201 62.5551 149.017 70.0018 149.017C78.8717 149.017 86.4984 146.457 89.9294 148.035C91.1742 148.611 91.867 149.735 91.867 151.711H91.8653Z"
        stroke="#571571" stroke-miterlimit="10" />
    <path
        d="M39.4538 139.545C51.1659 139.545 60.6605 128.363 60.6605 114.569C60.6605 100.776 51.1659 89.5938 39.4538 89.5938C27.7416 89.5938 18.2471 100.776 18.2471 114.569C18.2471 128.363 27.7416 139.545 39.4538 139.545Z"
        fill="white" stroke="white" stroke-miterlimit="10" />
    <path
        d="M39.4537 128.018C46.9054 128.018 52.9462 121.997 52.9462 114.569C52.9462 107.142 46.9054 101.121 39.4537 101.121C32.002 101.121 25.9612 107.142 25.9612 114.569C25.9612 121.997 32.002 128.018 39.4537 128.018Z"
        fill="black" stroke="black" stroke-miterlimit="10" />
    <path
        d="M35.0196 114.57C37.9646 114.57 40.3521 112.19 40.3521 109.254C40.3521 106.319 37.9646 103.939 35.0196 103.939C32.0745 103.939 29.687 106.319 29.687 109.254C29.687 112.19 32.0745 114.57 35.0196 114.57Z"
        fill="white" />
    <path
        d="M44.5222 124.017C46.4853 124.017 48.0767 122.431 48.0767 120.474C48.0767 118.518 46.4853 116.932 44.5222 116.932C42.5592 116.932 40.9678 118.518 40.9678 120.474C40.9678 122.431 42.5592 124.017 44.5222 124.017Z"
        fill="white" />
    <path
        d="M100.547 139.545C112.259 139.545 121.753 128.363 121.753 114.569C121.753 100.776 112.259 89.5938 100.547 89.5938C88.8344 89.5938 79.3398 100.776 79.3398 114.569C79.3398 128.363 88.8344 139.545 100.547 139.545Z"
        fill="white" stroke="white" stroke-miterlimit="10" />
    <path
        d="M100.546 128.018C107.998 128.018 114.039 121.997 114.039 114.569C114.039 107.142 107.998 101.121 100.546 101.121C93.0948 101.121 87.054 107.142 87.054 114.569C87.054 121.997 93.0948 128.018 100.546 128.018Z"
        fill="black" stroke="black" stroke-miterlimit="10" />
    <path
        d="M96.114 114.57C99.0591 114.57 101.447 112.19 101.447 109.254C101.447 106.319 99.0591 103.939 96.114 103.939C93.1689 103.939 90.7815 106.319 90.7815 109.254C90.7815 112.19 93.1689 114.57 96.114 114.57Z"
        fill="white" />
    <path
        d="M105.615 124.017C107.578 124.017 109.169 122.431 109.169 120.474C109.169 118.518 107.578 116.932 105.615 116.932C103.652 116.932 102.061 118.518 102.061 120.474C102.061 122.431 103.652 124.017 105.615 124.017Z"
        fill="white" />
    <path
        d="M121.765 96.2913C121.551 97.3236 114.898 76.1335 98.5387 80.1463C96.2085 80.7171 94.8436 77.1504 95.4661 74.8415C96.0902 72.5224 98.3895 71.714 100.788 71.779C115.683 72.1806 124.075 85.1281 121.765 96.293V96.2913Z"
        fill="black" stroke="black" stroke-linejoin="round" />
    <path
        d="M18.235 96.2913C18.4494 97.3236 25.1022 76.1335 41.4616 80.1463C43.7918 80.7171 45.1566 77.1504 44.5342 74.8415C43.9101 72.5224 41.6108 71.714 39.212 71.779C24.3169 72.1806 15.9254 85.1281 18.235 96.293V96.2913Z"
        fill="black" stroke="black" stroke-linejoin="round" />
    <path
        d="M106.771 150.081C101.764 150.081 97.6917 146.864 97.6917 142.911C97.6917 138.959 101.764 135.742 106.771 135.742C111.777 135.742 115.85 138.959 115.85 142.911C115.85 146.864 111.777 150.081 106.771 150.081Z"
        fill="#E66DCA" />
    <path
        d="M106.771 136.628C111.294 136.628 114.962 139.441 114.962 142.912C114.962 146.383 111.294 149.196 106.771 149.196C102.247 149.196 98.5798 146.383 98.5798 142.912C98.5798 139.441 102.247 136.628 106.771 136.628ZM106.771 134.855C104.194 134.855 101.75 135.64 99.895 137.064C97.9008 138.593 96.8035 140.67 96.8035 142.912C96.8035 145.154 97.9008 147.229 99.895 148.76C101.75 150.184 104.194 150.968 106.771 150.968C109.348 150.968 111.791 150.184 113.646 148.76C115.641 147.23 116.738 145.154 116.738 142.912C116.738 140.67 115.641 138.595 113.646 137.064C111.791 135.64 109.348 134.855 106.771 134.855Z"
        fill="#6251F5" />
    <path
        d="M33.2297 150.081C28.2229 150.081 24.1506 146.864 24.1506 142.911C24.1506 138.959 28.2229 135.742 33.2297 135.742C38.2364 135.742 42.3087 138.959 42.3087 142.911C42.3087 146.864 38.2364 150.081 33.2297 150.081Z"
        fill="#E66DCA" />
    <path
        d="M33.2297 136.628C37.7529 136.628 41.4205 139.441 41.4205 142.912C41.4205 146.383 37.7529 149.196 33.2297 149.196C28.7064 149.196 25.0388 146.383 25.0388 142.912C25.0388 139.441 28.7064 136.628 33.2297 136.628ZM33.2297 134.855C30.6526 134.855 28.2092 135.64 26.354 137.064C24.3598 138.593 23.2625 140.67 23.2625 142.912C23.2625 145.154 24.3598 147.229 26.354 148.76C28.2092 150.184 30.6526 150.968 33.2297 150.968C35.8068 150.968 38.2502 150.184 40.1054 148.76C42.0995 147.23 43.1969 145.154 43.1969 142.912C43.1969 140.67 42.0995 138.595 40.1054 137.064C38.2502 135.64 35.8068 134.855 33.2297 134.855Z"
        fill="#6251F5" />
</svg>
