<svg width="29" height="29" viewBox="0 0 29 29" fill="none" xmlns="http://www.w3.org/2000/svg">
<path d="M28.2212 12.6149C28.2203 12.6142 28.2196 12.6133 28.219 12.6126L16.3881 0.782286C15.8838 0.27768 15.2133 0 14.5002 0C13.787 0 13.1165 0.27768 12.612 0.782229L0.787287 12.6066C0.783322 12.6106 0.77913 12.6148 0.775391 12.6188C-0.260217 13.6603 -0.258404 15.3502 0.78049 16.3891C1.25507 16.864 1.88169 17.1388 2.55199 17.1678C2.57941 17.1704 2.60688 17.1717 2.63452 17.1717H3.10582V25.878C3.10582 27.6011 4.50782 29.0029 6.23089 29.0029H10.8595C11.3288 29.0029 11.7092 28.6223 11.7092 28.1532V21.3273C11.7092 20.5412 12.3489 19.9017 13.1351 19.9017H15.8652C16.6514 19.9017 17.2909 20.5412 17.2909 21.3273V28.1532C17.2909 28.6223 17.6712 29.0029 18.1406 29.0029H22.7692C24.4925 29.0029 25.8942 27.6012 25.8942 25.8781V17.1718H26.3315C27.0445 17.1718 27.7149 16.894 28.2196 16.3893C29.2597 15.3489 29.2601 13.6559 28.2212 12.6148L28.2212 12.6149ZM27.0179 15.1878C26.928 15.2783 26.821 15.35 26.7032 15.3989C26.5854 15.4477 26.459 15.4727 26.3315 15.4724H25.0445C24.5752 15.4724 24.1948 15.8528 24.1948 16.3221V25.8781C24.1948 26.6641 23.5553 27.3035 22.7691 27.3035H18.9902V21.3273C18.9902 19.6043 17.5884 18.2023 15.8651 18.2023H13.1352C11.4119 18.2023 10.0099 19.6043 10.0099 21.3273V27.3035H6.231C5.44498 27.3035 4.80527 26.664 4.80527 25.8781V16.3221C4.80527 15.8527 4.42489 15.4724 3.95557 15.4724H2.69072C2.67746 15.4714 2.66418 15.4708 2.6509 15.4706C2.39774 15.4662 2.16034 15.3657 1.98247 15.1876C1.60407 14.8092 1.60407 14.1934 1.98247 13.8148C1.98264 13.8148 1.98264 13.8146 1.98287 13.8143L1.98354 13.8137L13.814 1.98375C13.9038 1.89329 14.0108 1.82157 14.1286 1.77276C14.2464 1.72395 14.3727 1.69901 14.5002 1.69939C14.7593 1.69939 15.0029 1.80028 15.1863 1.98375L27.0141 13.8113L27.0196 13.8166C27.3961 14.1957 27.3954 14.8102 27.0179 15.1878Z" fill="white"/>
</svg>
