<svg width="30" height="30" viewBox="0 0 30 30" fill="none" xmlns="http://www.w3.org/2000/svg">
<path d="M29.1428 13.0269L29.1408 13.0249L16.9234 0.808016C16.4026 0.286927 15.7103 0 14.9738 0C14.2374 0 13.545 0.286751 13.024 0.807782L0.813005 13.0185C0.80891 13.0226 0.804815 13.0269 0.800721 13.031C-0.268717 14.1066 -0.266845 15.8516 0.805985 16.9245C1.29607 17.4148 1.94346 17.6988 2.63559 17.7286C2.66367 17.7313 2.69204 17.7327 2.72059 17.7327H3.20751V26.7236C3.20751 28.5028 4.65507 29.9504 6.43466 29.9504H11.2144C11.6989 29.9504 12.0919 29.5575 12.0919 29.0729V22.024C12.0919 21.2122 12.7523 20.5518 13.5642 20.5518H16.3834C17.1954 20.5518 17.8557 21.2122 17.8557 22.024V29.0729C17.8557 29.5575 18.2485 29.9504 18.7331 29.9504H23.513C25.2926 29.9504 26.7401 28.5028 26.7401 26.7237V17.7327H27.1917C27.9279 17.7327 28.6203 17.446 29.1415 16.925C30.2155 15.8503 30.2159 14.1023 29.1428 13.0269Z" fill="white"/>
</svg>
