<svg width="97" height="97" viewBox="0 0 97 97" fill="none" xmlns="http://www.w3.org/2000/svg">
    <g filter="url(#filter0_d_1_12122)">
        <rect x="20" y="16" width="49" height="49" rx="24.5" fill="url(#paint0_linear_1_12122)"
            shape-rendering="crispEdges" />
        <path fill-rule="evenodd" clip-rule="evenodd"
            d="M27.8333 40.5093C27.8333 31.3101 35.314 23.833 44.5 23.833C53.686 23.833 61.1667 31.3101 61.1667 40.5093C61.1667 49.6893 53.686 57.1663 44.5 57.1663C35.314 57.1663 27.8333 49.6893 27.8333 40.5093ZM50.6133 42.1961C50.7902 42.0192 51.0155 41.7459 51.0637 41.6815C51.3211 41.3439 51.4498 40.9258 51.4498 40.5093C51.4498 40.0414 51.305 39.6072 51.0315 39.2535C51.0091 39.2311 50.9652 39.1833 50.908 39.1211C50.801 39.0046 50.6474 38.8374 50.5007 38.6907C49.1815 37.2757 45.7387 34.9602 43.9369 34.2527C43.6635 34.1417 42.9717 33.8989 42.6017 33.8829C42.2478 33.8829 41.9099 33.9633 41.5882 34.1241C41.186 34.3492 40.8642 34.7029 40.6873 35.121C40.5747 35.4104 40.3977 36.2787 40.3977 36.2948C40.2207 37.2435 40.1242 38.7872 40.1242 40.4916C40.1242 42.1173 40.2207 43.595 40.3655 44.5598C40.3695 44.5638 40.3833 44.6328 40.4048 44.74C40.4702 45.0659 40.6064 45.7448 40.7516 46.0231C41.1055 46.6984 41.7973 47.1165 42.5373 47.1165H42.6017C43.0843 47.1004 44.0978 46.6823 44.0978 46.6663C45.8031 45.9588 49.1654 43.7558 50.5167 42.2926L50.6133 42.1961Z"
            fill="white" />
    </g>
    <defs>
        <filter id="filter0_d_1_12122" x="0" y="0" width="97" height="97"
            filterUnits="userSpaceOnUse" color-interpolation-filters="sRGB">
            <feFlood flood-opacity="0" result="BackgroundImageFix" />
            <feColorMatrix in="SourceAlpha" type="matrix"
                values="0 0 0 0 0 0 0 0 0 0 0 0 0 0 0 0 0 0 127 0" result="hardAlpha" />
            <feOffset dx="4" dy="8" />
            <feGaussianBlur stdDeviation="12" />
            <feComposite in2="hardAlpha" operator="out" />
            <feColorMatrix type="matrix"
                values="0 0 0 0 0.411765 0 0 0 0 0.286275 0 0 0 0 1 0 0 0 0.25 0" />
            <feBlend mode="normal" in2="BackgroundImageFix" result="effect1_dropShadow_1_12122" />
            <feBlend mode="normal" in="SourceGraphic" in2="effect1_dropShadow_1_12122"
                result="shape" />
        </filter>
        <linearGradient id="paint0_linear_1_12122" x1="69" y1="65" x2="10.6944" y2="48.0948"
            gradientUnits="userSpaceOnUse">
            <stop stop-color="#6949FF" />
            <stop offset="1" stop-color="#B09FFF" />
        </linearGradient>
    </defs>
</svg>
