<svg width="30" height="31" viewBox="0 0 30 31" fill="none" xmlns="http://www.w3.org/2000/svg">
<path d="M28.7735 12.6697L26.0098 14.8308C26.0461 15.1641 26.0749 15.5537 26.0749 15.9659C26.0749 16.3781 26.0448 16.7677 26.0098 17.101L28.7761 19.2634C29.2897 19.6693 29.4313 20.3897 29.103 20.9897L26.229 25.9623C25.9145 26.5348 25.2092 26.7967 24.5665 26.5599L21.3053 25.2507C20.6814 25.7017 20.0262 26.0826 19.3484 26.387L18.8523 29.8461C18.7709 30.5039 18.1996 31 17.5243 31H11.7612C11.0859 31 10.5146 30.5039 10.4344 29.8586L9.93708 26.387C9.28057 26.0901 8.6354 25.7155 7.98265 25.2494L4.71273 26.5624C4.08758 26.8067 3.37593 26.5486 3.06274 25.9748L0.184938 20.9947C-0.154563 20.4209 -0.0154974 19.6767 0.510696 19.2608L3.27445 17.1009C3.23058 16.6774 3.20932 16.3104 3.20932 15.9658C3.20932 15.6213 3.23064 15.2542 3.27198 14.8308L0.505705 12.6671C-0.00674704 12.2612 -0.147105 11.5409 0.179887 10.9407L3.05393 5.96821C3.36589 5.39691 4.06996 5.13634 4.71643 5.3706L7.9776 6.6798C8.60151 6.23001 9.25802 5.84917 9.93579 5.5435L10.4319 2.08565C10.5134 1.42791 11.0847 0.931782 11.7599 0.931782H17.523C18.1983 0.931782 18.7696 1.42791 18.8497 2.07314L19.3471 5.5435C20.0036 5.84042 20.6488 6.21504 21.3015 6.6811L24.5714 5.36814C25.1941 5.12636 25.9082 5.38194 26.2214 5.9557L29.1105 10.9533C29.43 11.5396 29.2897 12.26 28.7735 12.6697ZM28.0155 11.5672L25.0313 6.53328L21.4444 7.97403C21.2414 8.05548 21.0109 8.02412 20.8355 7.89387C20.0587 7.31253 19.3083 6.87531 18.5391 6.56082C18.4378 6.51955 18.3492 6.4525 18.2819 6.36633C18.2147 6.28017 18.1712 6.1779 18.1557 6.06969L17.523 2.1846L11.676 2.25102L11.1285 6.06846C11.1128 6.17657 11.0691 6.27873 11.0019 6.36485C10.9347 6.45098 10.8462 6.5181 10.7451 6.55959C9.94454 6.88781 9.17404 7.33508 8.45364 7.88887C8.34423 7.97347 8.2098 8.01931 8.0715 8.01919C7.99257 8.01919 7.91364 8.00539 7.83724 7.97409L4.1476 6.5822L1.27356 11.5547C1.24725 11.6036 1.25224 11.66 1.28231 11.6838L4.32296 14.0604C4.40816 14.1272 4.47463 14.2149 4.5159 14.315C4.55718 14.4151 4.57186 14.5242 4.55851 14.6317C4.49209 15.1566 4.46202 15.5813 4.46202 15.966C4.46202 16.3506 4.49333 16.774 4.55851 17.3002C4.57197 17.4077 4.55735 17.5168 4.51607 17.6169C4.47478 17.7171 4.40825 17.8048 4.32296 17.8715L1.26739 20.3634L4.25166 25.3973L7.83853 23.9565C8.04273 23.8738 8.272 23.9051 8.44865 24.0367C9.22414 24.6193 9.97584 25.0552 10.7451 25.3697C10.846 25.4114 10.9342 25.4786 11.0012 25.5647C11.0682 25.6508 11.1117 25.7529 11.1272 25.8609L11.7612 29.7472L17.6095 29.6795L18.1557 25.8609C18.1714 25.7527 18.215 25.6506 18.2823 25.5645C18.3495 25.4783 18.438 25.4112 18.5391 25.3697C19.3384 25.0427 20.1089 24.5955 20.8305 24.0404C21.0072 23.9051 21.239 23.8725 21.4457 23.9565L25.1353 25.3484L28.0094 20.3759C28.0357 20.327 28.0307 20.2719 28.0006 20.2481L24.96 17.8715C24.8747 17.8047 24.8082 17.717 24.7669 17.6169C24.7256 17.5167 24.711 17.4076 24.7244 17.3002C24.772 16.9193 24.8209 16.462 24.8209 15.9659C24.8209 15.4685 24.772 15.0125 24.7244 14.6316C24.7111 14.5242 24.7258 14.4151 24.767 14.315C24.8083 14.2149 24.8748 14.1271 24.96 14.0603L27.9969 11.6849C28.0293 11.6586 28.0356 11.6022 28.0155 11.5672Z" fill="white"/>
<path d="M14.6415 22.2295C11.1874 22.2295 8.37726 19.4193 8.37726 15.9653C8.37726 12.5112 11.1874 9.70103 14.6415 9.70103C18.0956 9.70103 20.9057 12.5112 20.9057 15.9653C20.9057 19.4193 18.0956 22.2295 14.6415 22.2295ZM14.6415 10.9539C11.8777 10.9539 9.63014 13.2015 9.63014 15.9653C9.63014 18.729 11.8777 20.9766 14.6415 20.9766C17.4052 20.9766 19.6528 18.729 19.6528 15.9653C19.6528 13.2015 17.4052 10.9539 14.6415 10.9539Z" fill="white"/>
</svg>
