<svg width="29" height="30" viewBox="0 0 29 30" fill="none" xmlns="http://www.w3.org/2000/svg">
<path d="M28.498 18.1538L25.7607 16.0133C25.7954 15.6832 25.8252 15.2973 25.8252 14.8891C25.8252 14.4808 25.7966 14.0949 25.7607 13.7649L28.5005 11.6232C29.0093 11.2211 29.1482 10.5076 28.8243 9.91328L25.9778 4.98825C25.6738 4.43237 25.0074 4.14695 24.3312 4.39636L21.1012 5.69304C20.4821 5.24633 19.833 4.86913 19.1618 4.5676L18.6704 1.14161C18.5897 0.49138 18.0239 0 17.3551 0H11.6472C10.9783 0 10.4138 0.49138 10.3343 1.13166L9.84172 4.5701C9.19149 4.86296 8.55248 5.23522 7.90598 5.69554L4.66734 4.39514C4.0605 4.16062 3.3346 4.42364 3.03307 4.97708L0.182856 9.90827C-0.153397 10.4766 -0.0144406 11.2149 0.505498 11.6269L3.24281 13.7674C3.19936 14.1855 3.17831 14.5491 3.17831 14.8904C3.17831 15.2316 3.19942 15.5951 3.24281 16.0146L0.502997 18.1563C-0.00577394 18.5595 -0.143509 19.2731 0.180355 19.8662L3.0269 24.7911C3.33093 25.3458 3.99105 25.6337 4.6735 25.383L7.90348 24.0863C8.52142 24.5318 9.17037 24.909 9.84172 25.2118L10.3331 28.6365C10.4137 29.2892 10.9783 29.7806 11.6484 29.7806H17.3563C18.0252 29.7806 18.591 29.2892 18.6704 28.6489L19.163 25.2118C19.8132 24.9177 20.451 24.5467 21.0987 24.0851L24.3374 25.3855C24.4924 25.4462 24.6573 25.4773 24.8238 25.4773C25.3052 25.4773 25.7482 25.2142 25.9716 24.8047L28.8305 19.8537C29.1482 19.273 29.0092 18.5595 28.498 18.1538ZM14.5011 19.8537C11.7638 19.8537 9.53769 17.6276 9.53769 14.8903C9.53769 12.153 11.7638 9.92689 14.5011 9.92689C17.2384 9.92689 19.4645 12.153 19.4645 14.8903C19.4645 17.6276 17.2384 19.8537 14.5011 19.8537Z" fill="white"/>
</svg>
