<svg width="187" height="159" viewBox="0 0 187 159" fill="none" xmlns="http://www.w3.org/2000/svg">
<g filter="url(#filter0_d_34_2329)">
<path d="M179.887 121.949L109.45 9.0471C107.746 6.28619 105.365 4.00612 102.533 2.42289C99.7008 0.83966 96.5114 0.00570363 93.2669 2.9153e-05C90.0224 -0.00564532 86.8301 0.81715 83.9925 2.39046C81.155 3.96378 78.7661 6.23551 77.0522 8.99044L6.5021 122.081C4.86173 124.958 3.99936 128.212 4 131.524C4.00064 134.836 4.86426 138.09 6.50574 140.966C8.14723 143.843 10.5099 146.242 13.3609 147.926C16.2119 149.611 19.4527 150.524 22.764 150.575H163.701C167.024 150.522 170.276 149.601 173.134 147.904C175.991 146.206 178.355 143.791 179.991 140.897C181.628 138.004 182.479 134.733 182.46 131.409C182.442 128.085 181.555 124.824 179.887 121.949Z" fill="#FFD54F"/>
</g>
<path d="M163.701 150.575H22.764C19.4527 150.524 16.2119 149.611 13.3609 147.926C10.5099 146.242 8.14723 143.843 6.50574 140.966C4.86426 138.09 4.00064 134.836 4 131.524C3.99936 128.212 4.86173 124.958 6.5021 122.081L77.0522 8.99044C78.7661 6.23551 81.155 3.96378 83.9925 2.39046C86.8301 0.81715 90.0224 -0.00564532 93.2669 2.9153e-05C96.5114 0.00570363 99.7008 0.83966 102.533 2.42289C105.365 4.00612 107.746 6.28619 109.45 9.0471L179.887 121.949C181.555 124.824 182.442 128.085 182.46 131.409C182.479 134.733 181.628 138.004 179.991 140.897C178.355 143.791 175.991 146.206 173.134 147.904C170.276 149.601 167.024 150.522 163.701 150.575ZM87.8116 15.5254L17.2678 128.616C16.7476 129.576 16.4841 130.655 16.5027 131.747C16.5214 132.839 16.8216 133.908 17.3743 134.85C17.927 135.792 18.7135 136.575 19.6577 137.124C20.6019 137.673 21.6719 137.969 22.764 137.984H163.701C164.805 137.967 165.885 137.663 166.836 137.101C167.786 136.539 168.574 135.739 169.121 134.78C169.669 133.821 169.956 132.736 169.956 131.632C169.956 130.528 169.668 129.443 169.121 128.484C169.121 128.484 98.6844 15.5632 98.6529 15.5254C98.0732 14.6127 97.2724 13.8612 96.3248 13.3405C95.3772 12.8198 94.3135 12.5468 93.2323 12.5468C92.151 12.5468 91.0873 12.8198 90.1397 13.3405C89.1921 13.8612 88.3913 14.6127 87.8116 15.5254Z" fill="black"/>
<path d="M87.4843 91.5457L85.8097 66.5138C85.4823 61.4772 83.7636 53.3368 87.6103 49.2446C90.5378 46.0967 97.4694 45.5553 99.5722 49.9182C101.36 55.0451 101.756 60.5546 100.718 65.8843L98.4767 91.6527C98.3804 94.078 97.8494 96.4663 96.9091 98.704C96.5389 99.428 95.9778 100.037 95.2863 100.465C94.5949 100.893 93.7995 101.124 92.9864 101.132C92.1732 101.141 91.3733 100.927 90.6731 100.513C89.9729 100.099 89.3993 99.5021 89.0142 98.7858C88.1282 96.4675 87.6119 94.0243 87.4843 91.5457ZM93.2827 125.939C91.2974 125.928 89.3909 125.161 87.9512 123.794C86.5114 122.427 85.6466 120.563 85.5327 118.581C85.4188 116.599 86.0644 114.648 87.338 113.125C88.6117 111.602 90.4177 110.621 92.3887 110.383C93.4476 110.254 94.5215 110.345 95.5442 110.648C96.5668 110.951 97.5166 111.46 98.3348 112.144C99.153 112.828 99.8223 113.673 100.301 114.626C100.78 115.579 101.059 116.62 101.12 117.685C101.182 118.75 101.024 119.816 100.657 120.817C100.29 121.819 99.7222 122.735 98.9878 123.508C98.2534 124.282 97.3683 124.896 96.387 125.315C95.4058 125.733 94.3493 125.945 93.2827 125.939Z" fill="black"/>
<defs>
<filter id="filter0_d_34_2329" x="0" y="0" width="186.46" height="158.575" filterUnits="userSpaceOnUse" color-interpolation-filters="sRGB">
<feFlood flood-opacity="0" result="BackgroundImageFix"/>
<feColorMatrix in="SourceAlpha" type="matrix" values="0 0 0 0 0 0 0 0 0 0 0 0 0 0 0 0 0 0 127 0" result="hardAlpha"/>
<feOffset dy="4"/>
<feGaussianBlur stdDeviation="2"/>
<feComposite in2="hardAlpha" operator="out"/>
<feColorMatrix type="matrix" values="0 0 0 0 0 0 0 0 0 0 0 0 0 0 0 0 0 0 0.25 0"/>
<feBlend mode="normal" in2="BackgroundImageFix" result="effect1_dropShadow_34_2329"/>
<feBlend mode="normal" in="SourceGraphic" in2="effect1_dropShadow_34_2329" result="shape"/>
</filter>
</defs>
</svg>
